<svg width="750" height="1024" viewBox="0 0 750 1024" fill="none" xmlns="http://www.w3.org/2000/svg">
<g clip-path="url(#clip0_111_1245)">
<path d="M750 0H0V1024H750V0Z" fill="#FFD9B4"/>
<path d="M81.3365 153.837C81.3365 153.837 40.0625 161.41 46.7285 209.007C53.3955 256.605 82.7285 352.96 155.396 309.115C228.063 265.27 245.679 333.19 294.839 356.857C343.999 380.524 351.714 381.055 415.889 338.605C480.063 296.155 483.693 337.281 542.977 346.614C602.261 355.947 644.063 358.184 649.396 308.394C654.729 258.604 602.269 223.91 599.643 177.068C597.016 130.226 614.152 7.93841 515.107 66.6054C416.063 125.272 378.95 131.961 342.173 96.9504C305.396 61.9384 211.017 51.9054 196.207 95.9214C181.397 139.937 105.944 81.0704 81.3365 153.837Z" fill="#FFC287"/>
<path d="M707.656 875.763C706.873 875.253 705.827 875.479 705.321 876.261C696.369 890.065 692.032 902.106 689.976 911.289C685.8 894.903 675.919 879.348 675.411 878.555C674.908 877.769 673.862 877.538 673.079 878.045C672.294 878.548 672.064 879.593 672.569 880.378C672.716 880.606 687.174 903.359 688.358 922.065C688.019 926.925 688.405 929.774 688.452 930.095C688.576 930.932 689.297 931.533 690.121 931.533C690.202 931.533 690.285 931.528 690.367 931.515C691.289 931.381 691.928 930.523 691.796 929.601C691.764 929.387 688.924 907.757 708.158 878.097C708.661 877.317 708.438 876.27 707.656 875.763Z" fill="#FF840F"/>
<path d="M706.698 856.135C690.019 841.398 683.651 846.074 684.178 830.92C684.705 815.767 676.138 804.044 667.844 801.866C659.549 799.688 649.837 800.078 645.992 783.389C642.147 766.699 627.138 764.901 620.174 768.385C613.21 771.868 605.647 784.957 616.695 798.043C627.744 811.128 621.608 818.665 618.376 826.61C615.144 834.555 619.387 848.44 631.829 857.106C644.27 865.772 636.711 868.065 638.501 890.249C640.291 912.433 686.6 901.18 686.6 901.18C686.6 901.18 723.377 870.872 706.698 856.135Z" fill="#FFD0A3"/>
<path d="M683.199 847.394L668.725 865.443L660.032 848.063L653.829 835.666L663.139 812.695L652.389 832.784L642.659 813.334L622.781 773.598L640.923 812.093L623.872 802.616L641.613 813.562L657.995 848.326L627.841 839.959L660.158 852.915L676.18 887.831L648.621 881.502L678.816 892.512L683.607 902.678L686.601 901.18L670.527 869.045L683.199 847.394Z" fill="#FF840F"/>
<path d="M676.375 848.228C693.054 833.491 699.422 838.165 698.895 823.013C698.368 807.86 706.935 796.138 715.23 793.959C723.524 791.781 733.236 792.171 737.081 775.482C740.926 758.793 755.935 756.994 762.899 760.478C769.863 763.962 777.425 777.051 766.378 790.136C755.329 803.222 761.465 810.758 764.697 818.703C767.93 826.649 763.686 840.531 751.244 849.199C738.803 857.865 746.362 860.159 744.572 882.343C742.782 904.527 696.472 893.273 696.472 893.273C696.472 893.273 659.696 862.964 676.375 848.228Z" fill="#FF9608"/>
<path d="M699.879 839.486L714.353 857.535L723.048 840.155L729.249 827.758L719.939 804.787L730.689 824.876L740.419 805.426L760.297 765.689L742.157 804.186L759.206 794.708L741.465 805.654L725.083 840.418L755.237 832.051L722.919 845.008L706.897 879.925L734.456 873.596L704.261 884.604L699.471 894.77L696.477 893.274L712.551 861.137L699.879 839.486Z" fill="#FF840F"/>
<path d="M726.808 955.851C726.808 947.191 721.979 939.45 714.387 934.242C714.29 930.48 711.225 927.456 707.439 927.456H675.635C671.849 927.456 668.784 930.48 668.688 934.244C661.095 939.452 656.268 947.193 656.268 955.852C656.268 964.512 661.097 972.253 668.688 977.461C668.784 981.223 671.849 984.249 675.635 984.249H707.439C711.225 984.249 714.29 981.225 714.387 977.462C721.979 972.251 726.808 964.51 726.808 955.851Z" fill="white"/>
<path d="M668.688 935.087H714.389C714.855 935.087 715.233 934.709 715.233 934.243C715.233 933.777 714.855 933.398 714.389 933.398H668.688C668.222 933.398 667.844 933.777 667.844 934.243C667.844 934.709 668.222 935.087 668.688 935.087Z" fill="#FFB36B"/>
<path d="M714.389 976.614H668.688C668.222 976.614 667.844 976.993 667.844 977.459C667.844 977.925 668.222 978.303 668.688 978.303H714.389C714.855 978.303 715.233 977.925 715.233 977.459C715.233 976.993 714.855 976.614 714.389 976.614Z" fill="#FFB36B"/>
<path d="M200.93 204.613H40V264.105H200.93V204.613Z" fill="#EFEAF4"/>
<path d="M146.227 212.239H45.7344V215.709H146.227V212.239Z" fill="#D9D1F2"/>
<path d="M64.0078 133.125C64.0078 130.98 64.0078 128.835 64.0078 126.689C64.0958 125.917 64.1851 125.146 64.2706 124.374C65.5844 112.558 70.0974 102.135 78.0623 93.2976C86.5181 83.9147 96.9942 78.0569 109.46 75.8506C111.526 75.4849 113.619 75.2767 115.701 74.9966C117.845 74.9966 119.99 74.9966 122.135 74.9966C122.41 75.0573 122.684 75.154 122.963 75.1738C131.552 75.7812 139.588 78.2354 146.919 82.7297C161.144 91.4483 169.901 104.015 172.972 120.46C173.356 122.517 173.547 124.612 173.827 126.689C173.827 128.835 173.827 130.979 173.827 133.125C173.739 133.896 173.65 134.668 173.565 135.44C172.251 147.256 167.738 157.679 159.773 166.516C151.317 175.899 140.841 181.757 128.375 183.963C126.309 184.329 124.216 184.537 122.135 184.817C119.99 184.817 117.845 184.817 115.701 184.817C115.424 184.757 115.151 184.66 114.873 184.64C106.283 184.033 98.2473 181.579 90.9158 177.084C76.6915 168.366 67.9345 155.799 64.8631 139.354C64.4788 137.297 64.2879 135.202 64.0078 133.125ZM165.3 129.922C165.32 104.349 144.576 83.58 118.96 83.5255C93.4183 83.4709 72.6272 104.214 72.5379 129.839C72.4487 155.401 93.3266 176.305 118.932 176.288C144.527 176.274 165.281 155.521 165.3 129.922Z" fill="#0F344E"/>
<path d="M114.65 117.473C114.651 113.291 114.615 109.109 114.662 104.928C114.698 101.705 117.629 99.6589 120.488 100.784C122.224 101.469 123.186 103.034 123.187 105.244C123.193 112.321 123.228 119.399 123.154 126.475C123.14 127.739 123.555 128.458 124.54 129.18C129.121 132.537 133.64 135.981 138.189 139.384C139.77 140.568 140.519 142.098 140.027 144.05C139.291 146.973 135.978 148.181 133.46 146.443C131.874 145.349 130.36 144.145 128.817 142.989C124.9 140.052 121.013 137.075 117.056 134.197C115.369 132.97 114.598 131.453 114.63 129.377C114.693 125.409 114.65 121.44 114.65 117.473Z" fill="#0F344E"/>
<path d="M369.139 74.9966H217.75V212.239H369.139V74.9966Z" fill="white"/>
<path d="M363.302 84.9458H223.575C223.223 84.9458 222.938 85.2309 222.938 85.5829C222.938 85.9349 223.223 86.22 223.575 86.22H288.767V202.114C288.767 202.466 289.052 202.751 289.404 202.751C289.756 202.751 290.041 202.466 290.041 202.114V86.22H363.302C363.654 86.22 363.939 85.9349 363.939 85.5829C363.939 85.2309 363.654 84.9458 363.302 84.9458Z" fill="#FF9608"/>
<path d="M251.702 110.642H232.971V140.901H251.702V110.642Z" fill="#D9D1F2"/>
<path d="M232.971 110.642H251.702C251.702 110.642 253.459 138.924 245.525 138.924H226.443C226.443 138.924 232.971 132.359 232.971 110.642Z" fill="#0F344E"/>
<path d="M251.702 146.883H232.971V177.142H251.702V146.883Z" fill="#D9D1F2"/>
<path d="M232.971 146.883H251.702C251.702 146.883 253.459 175.165 245.525 175.165H226.443C226.443 175.165 232.971 168.6 232.971 146.883Z" fill="#0F344E"/>
<path d="M323.364 146.883H304.633V177.142H323.364V146.883Z" fill="#D9D1F2"/>
<path d="M304.633 146.883H323.364C323.364 146.883 325.121 175.165 317.187 175.165H298.105C298.105 175.165 304.633 168.6 304.633 146.883Z" fill="#0F344E"/>
<path d="M391.566 333.133H700.87C707.487 333.133 712.852 327.768 712.852 321.151V88.0768C712.852 81.4592 707.487 76.0947 700.87 76.0947H391.566C384.948 76.0947 379.584 81.4592 379.584 88.0768V321.151C379.584 327.768 384.948 333.133 391.566 333.133Z" fill="white"/>
<path d="M562.383 199.741H400.215V204.238H562.383V199.741Z" fill="#0F344E"/>
<path d="M422.281 110.067H400.881V192.714H422.281V110.067Z" fill="#0F344E"/>
<path d="M450.4 121.534H429V192.715H450.4V121.534Z" fill="#0F344E"/>
<path d="M479.279 135.124H457.879V192.714H479.279V135.124Z" fill="#0F344E"/>
<path d="M510.095 143.618H488.695V192.715H510.095V143.618Z" fill="#0F344E"/>
<path d="M562.385 184.519H518.854V188.474H562.385V184.519Z" fill="#0F344E"/>
<path d="M562.385 174.301H518.854V178.256H562.385V174.301Z" fill="#0F344E"/>
<path d="M562.385 163.407H518.854V167.362H562.385V163.407Z" fill="#0F344E"/>
<path d="M550.835 276.389C550.74 276.217 550.569 276.098 550.374 276.07C550.178 276.036 549.981 276.102 549.839 276.24L521.647 303.188L489.543 267.443C489.424 267.31 489.252 267.232 489.073 267.231H489.069C488.891 267.231 488.721 267.305 488.6 267.437L464.852 293.253L408.836 247.641L419.148 245.996C419.495 245.94 419.731 245.614 419.677 245.266C419.62 244.918 419.3 244.685 418.947 244.737L407.231 246.607C407.219 246.61 407.21 246.621 407.198 246.623C407.102 246.644 407.019 246.686 406.945 246.745C406.924 246.762 406.904 246.777 406.885 246.797C406.81 246.874 406.748 246.964 406.718 247.069L406.717 247.072C406.716 247.076 406.718 247.079 406.717 247.083C406.698 247.157 406.69 247.236 406.699 247.316L408.163 259.19C408.203 259.513 408.478 259.749 408.794 259.749C408.82 259.749 408.846 259.748 408.874 259.744C409.222 259.702 409.471 259.384 409.428 259.034L408.158 248.733L464.514 294.621C464.772 294.833 465.155 294.807 465.385 294.559L489.064 268.819L521.14 304.532C521.255 304.66 521.417 304.736 521.59 304.744C521.757 304.745 521.928 304.686 522.053 304.568L550.125 277.733L570.748 314.698C570.864 314.908 571.081 315.025 571.304 315.025C571.41 315.025 571.516 314.999 571.614 314.945C571.922 314.774 572.032 314.386 571.861 314.078L550.835 276.389Z" fill="#0F344E"/>
<path d="M522.671 225.115H521.822V272.069H522.671V225.115Z" fill="#0F344E"/>
<path d="M464.062 225.115H463.213V272.069H464.062V225.115Z" fill="#0F344E"/>
<path d="M662.826 112.028H590.445V118.399H662.826V112.028Z" fill="#0F344E"/>
<path d="M390.636 99.4801H701.799C707.902 99.4801 712.852 94.5321 712.852 88.4276V87.146C712.852 81.0427 707.904 76.0947 701.799 76.0947H390.636C384.533 76.0947 379.584 81.0427 379.584 87.146V88.4276C379.584 94.5321 384.532 99.4801 390.636 99.4801Z" fill="#FF9608"/>
<path d="M501.664 79.7241H590.773C594.877 79.7241 598.205 76.3973 598.205 72.2922V71.4307C598.205 67.3268 594.879 64 590.773 64H501.664C497.56 64 494.232 67.3268 494.232 71.4307V72.2922C494.232 76.3973 497.559 79.7241 501.664 79.7241Z" fill="#E0665C"/>
<path d="M-50 986H1032" stroke="#221238" stroke-miterlimit="10" stroke-linecap="round" stroke-linejoin="round"/>
<path d="M217.622 967.146C220.442 965.599 222.837 958.102 224.833 947.947V868.442H243.762V947.301C245.783 957.782 248.218 965.569 251.097 967.148C261.656 972.94 291.532 972.487 291.532 985.205H234.36H177.188C177.189 972.485 207.063 972.94 217.622 967.146Z" fill="white"/>
<path d="M243.763 877.835C243.763 877.835 234.985 883.332 224.834 883.267V868.44H243.763V877.835Z" fill="#FFB36B"/>
<path d="M323.541 860.388C323.541 860.388 246.672 886.336 199.138 866.205C151.605 846.073 167.263 780.757 175.315 760.178C183.367 739.6 241.974 732.907 262.999 762.872C284.026 792.836 325.027 820.126 323.541 860.388Z" fill="white"/>
<path d="M190.072 800.333C168.369 772.449 193.908 746.242 194.243 745.901C215.573 738.932 248.373 742.025 263.001 762.87C271.291 774.684 282.682 786.084 293.353 798.026C268.792 832.69 206.113 820.942 190.072 800.333Z" fill="#FFB36B"/>
<path d="M261.061 708.176C261.061 708.176 260.316 718.654 266.81 724.527C273.304 730.399 273.719 762.573 261.58 757.814C249.44 753.056 234.361 716.734 234.361 716.734C234.361 716.734 241.18 707.285 241.235 699.527C241.29 691.769 261.427 701.199 261.061 708.176Z" fill="#EAA373"/>
<path d="M240.273 705.039C240.841 703.203 241.225 701.32 241.238 699.527C241.293 691.769 261.429 701.199 261.064 708.176C261.064 708.176 252.564 711.547 240.273 705.039Z" fill="#CE8451"/>
<path d="M228.795 694.075C224.738 689.611 223.408 684.21 225.826 682.013C228.243 679.815 233.493 681.654 237.55 686.118C237.582 686.152 237.609 686.188 237.639 686.222C241.494 690.522 242.82 695.646 240.73 697.949C240.66 698.026 240.596 698.11 240.518 698.181C238.102 700.378 232.852 698.541 228.795 694.075Z" fill="#EA736A"/>
<path d="M271.289 674.735C271.289 674.735 271.084 681.912 272.886 687.347C274.688 692.783 270.424 702.888 265.669 706.616C260.913 710.344 248.839 706.931 244.001 703.63C239.163 700.328 234.253 690.395 233.099 685.692C231.945 680.989 235.244 660.692 249.217 660.148C263.19 659.603 271.237 662.572 271.289 674.735Z" fill="#FABC8B"/>
<path d="M240.271 671.15C240.271 671.15 261.883 678.531 259.869 673.164C259.869 673.164 273.617 683.107 273.306 677.47C273.306 677.47 284.363 672.836 278.994 660.86C273.625 648.884 265.315 652.527 261.066 650.291C256.816 648.054 243.033 642.294 232.886 650.57C222.739 658.847 225.827 682.012 225.827 682.012L231.249 681.635C231.249 681.635 233.942 692.713 236.953 694.793C236.953 694.793 235.714 683.228 236.832 677.188C237.947 671.15 243.936 675.624 240.271 671.15Z" fill="#010200"/>
<path d="M296.539 944.409L294.602 964.524C294.602 964.524 296.693 983.071 312.534 970.912L320.055 932.321L296.539 944.409Z" fill="#FABC8B"/>
<path d="M332.242 985.204H284.92C284.92 985.204 287.588 957.016 295.119 959.168C302.65 961.32 303.57 968.325 312.536 964.379C319.096 961.492 330.839 968.538 336.669 976.506C339.313 980.119 336.717 985.204 332.242 985.204Z" fill="#211A2D"/>
<path d="M327.651 967.422C328.015 967.406 328.345 967.658 328.381 968.028C328.415 968.398 328.143 968.724 327.775 968.758C326.138 968.91 321.672 969.853 320.679 972.373C320.576 972.638 320.323 972.799 320.055 972.799C319.974 972.799 319.89 972.785 319.81 972.752C319.464 972.617 319.296 972.228 319.432 971.883C320.926 968.083 327.376 967.446 327.651 967.422Z" fill="white"/>
<path d="M315.604 968.96C317.097 965.159 323.549 964.524 323.823 964.499C324.182 964.477 324.517 964.737 324.553 965.105C324.587 965.475 324.315 965.801 323.946 965.836C322.31 965.987 317.844 966.929 316.851 969.45C316.748 969.714 316.495 969.876 316.227 969.876C316.146 969.876 316.062 969.862 315.982 969.829C315.636 969.695 315.468 969.306 315.604 968.96Z" fill="white"/>
<path d="M316.32 951.489L296.539 944.409L317.072 947.627L316.32 951.489Z" fill="#CE8451"/>
<path d="M255.83 944.409L253.893 964.524C253.893 964.524 255.984 983.071 271.825 970.912L279.346 932.321L255.83 944.409Z" fill="#FABC8B"/>
<path d="M291.531 985.204H244.209C244.209 985.204 246.877 957.016 254.408 959.168C261.939 961.32 262.858 968.325 271.825 964.379C278.385 961.492 290.128 968.538 295.958 976.506C298.602 980.119 296.006 985.204 291.531 985.204Z" fill="#31273E"/>
<path d="M286.941 967.422C287.305 967.406 287.636 967.658 287.671 968.028C287.706 968.398 287.433 968.724 287.065 968.758C285.428 968.91 280.963 969.853 279.97 972.373C279.867 972.638 279.613 972.799 279.345 972.799C279.264 972.799 279.18 972.785 279.1 972.752C278.754 972.617 278.585 972.228 278.721 971.883C280.216 968.083 286.667 967.446 286.941 967.422Z" fill="white"/>
<path d="M274.893 968.96C276.386 965.159 282.838 964.524 283.112 964.499C283.47 964.477 283.806 964.737 283.842 965.105C283.876 965.475 283.604 965.801 283.235 965.836C281.599 965.987 277.133 966.929 276.14 969.45C276.037 969.714 275.784 969.876 275.516 969.876C275.435 969.876 275.351 969.862 275.271 969.829C274.926 969.695 274.757 969.306 274.893 968.96Z" fill="white"/>
<path d="M275.609 951.489L255.828 944.409L276.361 947.627L275.609 951.489Z" fill="#CE8451"/>
<path d="M204.842 816.545H298.79C298.79 816.545 324.05 821.466 330.433 834.441C336.816 847.415 323.54 949.991 323.54 949.991L292.079 944.942L294.315 873.363L284.921 948.968L250.668 943.599C250.668 943.599 257.844 862.4 255.831 860.388C253.817 858.375 236.046 860.5 214.236 851.441C209.192 849.346 204.171 832.837 204.842 826.947C205.513 821.058 204.842 816.545 204.842 816.545Z" fill="#FF840F"/>
<path d="M292.242 939.689L294.315 873.363C294.315 873.363 298.611 841.264 294.003 839.139C289.394 837.014 253.893 823.928 253.893 823.928C253.893 823.928 291.562 832.876 297.02 839.139C301.724 844.535 294.655 919.164 292.607 939.725L307.76 941.83C311.051 909.599 316.804 848.382 315.252 845.098C313.653 841.709 283.52 828.891 272.044 824.239C271.872 824.17 271.789 823.975 271.859 823.803C271.929 823.63 272.128 823.546 272.295 823.619C273.99 824.305 313.822 840.493 315.859 844.813C317.844 849.016 309.127 935.035 308.426 941.924L323.931 944.077C324.113 944.103 324.243 944.273 324.218 944.456C324.195 944.623 324.05 944.746 323.885 944.746C323.871 944.746 323.855 944.744 323.84 944.743L308.028 942.547H308.025H308.024L292.54 940.396C292.251 943.284 292.077 944.944 292.077 944.944L292.22 940.352L292.186 940.348C292.003 940.321 291.874 940.152 291.899 939.969C291.925 939.796 292.068 939.693 292.242 939.689Z" fill="#260D56"/>
<path d="M216.297 826.448C216.466 826.367 216.664 826.438 216.744 826.606C216.788 826.698 220.993 835.493 224.225 838.599C227.645 833.027 222.582 824.686 222.528 824.601C222.43 824.444 222.48 824.236 222.637 824.139C222.792 824.042 223.001 824.089 223.099 824.247C223.324 824.612 228.487 833.111 224.749 839.032C226.855 840.331 237.718 842.433 248.264 844.47C264.888 847.681 275.848 849.923 276.669 851.75C278.168 855.083 269.38 934.756 268.661 941.25L285.542 944.079C285.725 944.109 285.849 944.283 285.817 944.464C285.791 944.628 285.648 944.745 285.487 944.745C285.469 944.745 285.45 944.743 285.432 944.739L268.256 941.861H268.255L251.041 938.977C250.858 938.946 250.734 938.773 250.765 938.592C250.794 938.409 250.972 938.275 251.151 938.317L267.998 941.14C270.684 916.913 277.258 854.699 276.057 852.027C275.317 850.381 260.245 847.469 248.136 845.13C236.165 842.817 225.827 840.82 224.118 839.417C224.115 839.415 224.112 839.415 224.11 839.414L224.107 839.409C224.1 839.403 224.088 839.398 224.082 839.392C220.713 836.474 216.324 827.285 216.14 826.896C216.057 826.727 216.129 826.526 216.297 826.448Z" fill="#260D56"/>
<path d="M327.981 750.511C327.981 750.511 321.946 746.176 323.945 733.115C325.942 720.054 327.084 725.997 327.848 729.958C328.61 733.918 331.058 738.484 334.693 732.14C338.327 725.797 349.002 707.92 347.094 715.722C345.185 723.524 341.276 728.91 341.276 728.91C341.276 728.91 355.517 708.005 353.711 715.573C351.906 723.143 345.271 731.23 345.271 731.23C345.271 731.23 356.842 715.859 356.192 720.175C355.543 724.489 349.685 735.13 349.685 735.13C349.685 735.13 358.365 726.83 356.245 732.587C354.123 738.341 340.207 760.087 327.981 750.511Z" fill="#FABC8B"/>
<path d="M172.183 794.625C174.644 787.084 203.801 733.355 203.804 733.35L205.748 729.06L236.269 713.786C236.269 713.786 258.784 744.225 262.025 716.3C262.025 716.3 287.17 727.977 290.077 731.11C292.983 734.243 297.867 774.594 297.867 774.594L320.461 741.199L340.06 753.802L317.244 797.107C317.244 797.107 303.712 817.888 299.238 818.783C294.764 819.679 237.053 819.23 237.053 819.23L203.947 831.309V800.408C203.35 800.419 202.771 800.412 202.158 800.441C173.133 801.783 171.127 797.864 172.183 794.625Z" fill="#0F344E"/>
<path d="M235.755 715.603C235.908 715.506 236.117 715.55 236.219 715.707C242.094 724.949 250.542 730.964 256.816 730.315C263.008 729.681 264.056 718.818 264.066 718.707C264.082 718.525 264.231 718.379 264.43 718.404C264.614 718.42 264.752 718.584 264.734 718.768C264.691 719.238 263.626 730.292 256.884 730.983C256.649 731.007 256.408 731.012 256.169 731.019V800.44C256.169 800.624 256.017 800.775 255.833 800.775C255.649 800.775 255.498 800.624 255.498 800.44V731.009C249.188 730.766 241.243 724.859 235.654 716.066C235.552 715.912 235.599 715.704 235.755 715.603Z" fill="#FFDBE2"/>
<path d="M212.558 740.381C212.558 740.381 206.184 778.296 209.873 779.973C213.565 781.651 235.932 787.914 235.932 787.914C235.932 787.914 203.162 784.671 202.827 781.986C202.492 779.303 212.558 740.381 212.558 740.381Z" fill="#DB5B3E"/>
<path d="M225.773 800.441H222.814L228.358 787.084L225.773 800.441Z" fill="#DB5B3E"/>
<path d="M284.547 800.441H276.248L279.345 741.723L284.547 800.441Z" fill="#DB5B3E"/>
<path d="M233.429 768.847C233.511 768.732 233.555 768.595 233.555 768.455V752.915C233.555 752.544 233.255 752.244 232.883 752.244H218.486C218.114 752.244 217.814 752.544 217.814 752.915V768.455C217.814 768.599 217.86 768.739 217.946 768.856C218.088 769.045 221.455 773.499 226.004 773.499C228.711 773.499 231.208 771.934 233.429 768.847ZM232.212 768.235C230.294 770.838 228.206 772.156 226.006 772.156C222.589 772.156 219.789 768.991 219.157 768.219V753.585H232.212V768.235Z" fill="#DB5B3E"/>
<path d="M235.933 787.914L233.166 800.44H257.855C257.855 800.44 254.724 789.256 235.933 787.914Z" fill="#FABC8B"/>
<path d="M523.62 985.999H473.265C467.337 985.999 462.533 980.739 462.533 974.254C462.533 967.768 467.337 962.51 473.265 962.51H512.888V825.489H380.753H245.599H187.826V985.999H153.087H105.997H102.732C96.8044 985.999 92 980.739 92 974.254V813.744C92 807.258 96.8044 802 102.732 802H245.599H380.753H523.62C527.96 802 531.689 804.825 533.38 808.881H609V986H527.169L523.62 985.999Z" fill="#AF4945"/>
<path d="M400.923 967.147C403.742 965.6 406.138 958.103 408.134 947.948V868.442H427.063V947.301C429.085 957.783 431.519 965.569 434.398 967.148C444.957 972.941 474.832 972.487 474.832 985.206H417.66H360.488C360.488 972.486 390.364 972.941 400.923 967.147Z" fill="white"/>
<path d="M427.06 877.836C427.06 877.836 418.282 883.333 408.131 883.268V868.441H427.06V877.836Z" fill="#FFB36B"/>
<path d="M506.838 860.389C506.838 860.389 429.969 886.337 382.434 866.205C334.902 846.074 350.559 780.757 358.612 760.179C366.664 739.599 425.271 732.908 446.296 762.873C467.324 792.836 508.324 820.126 506.838 860.389Z" fill="white"/>
<path d="M373.369 800.334C351.665 772.45 377.205 746.242 377.54 745.901C398.869 738.933 431.67 742.026 446.298 762.871C454.588 774.685 465.979 786.084 476.65 798.026C452.089 832.69 389.41 820.942 373.369 800.334Z" fill="#FFB36B"/>
<path d="M438.116 717.792C438.116 717.792 434.827 727.768 439.686 735.053C444.545 742.338 437.069 773.633 426.464 766.047C415.86 758.46 410.133 719.554 410.133 719.554C410.133 719.554 419.058 712.062 421.01 704.553C422.963 697.043 440.179 711.118 438.116 717.792Z" fill="#EAA373"/>
<path d="M418.725 709.66C419.724 708.018 420.557 706.288 421.009 704.552C422.962 697.043 440.176 711.118 438.113 717.792C438.113 717.792 429.048 718.979 418.725 709.66Z" fill="#CE8451"/>
<path d="M410.283 696.22C407.441 690.898 407.476 685.336 410.357 683.798C412.206 682.811 414.776 683.727 417.133 685.91C418.451 687.129 419.701 688.741 420.72 690.649C420.742 690.69 420.76 690.731 420.782 690.771C423.466 695.884 423.498 701.175 420.907 702.897C420.82 702.955 420.738 703.021 420.646 703.07C420.28 703.266 419.885 703.385 419.471 703.436C416.615 703.794 412.762 700.867 410.283 696.22Z" fill="#E89997"/>
<path d="M456.218 687.874C456.218 687.874 454.262 694.78 454.677 700.492C455.093 706.203 448.486 714.957 442.961 717.407C437.437 719.857 426.568 713.592 422.684 709.206C418.802 704.82 416.473 693.987 416.506 689.144C416.539 684.302 424.708 665.43 438.388 668.324C452.07 671.218 459.146 676.068 456.218 687.874Z" fill="#FABC8B"/>
<path d="M414.223 715.552C414.223 715.552 393.409 718.572 389.383 723.269C385.357 727.967 369.252 823.591 369.252 823.591H509.502L500.108 790.375C500.108 790.375 476.285 785.677 472.594 783.329C468.903 780.98 453.469 727.631 450.113 725.954C446.758 724.276 437.397 720.927 437.397 720.927C437.397 720.927 431.28 740.367 414.223 715.552Z" fill="#FFDBE2"/>
<path d="M441.949 742.549C441.949 742.549 439.961 744.183 438.159 739.485C436.358 734.787 436.689 730.65 436.689 730.65C436.689 730.65 433.469 730.762 431.687 728.637C431.687 728.637 421.62 732.334 417.302 728.025C412.983 723.716 414.213 715.554 414.213 715.554L414.239 715.572C422.369 727.392 428.008 729.148 431.688 727.758C434.552 726.676 436.228 723.695 436.959 722.051L437.284 721.697L437.47 720.95C438.181 721.206 446.899 724.343 450.117 725.952C451.425 726.607 454.572 735.123 458.139 745.4C458.135 745.414 456.261 752.076 449.222 748.132C442.174 744.183 441.949 742.549 441.949 742.549Z" fill="#0F344E"/>
<path d="M402.134 742.549C410.634 748.185 402.358 778.072 402.358 778.072C414.213 776.729 441.2 787.084 441.2 787.084L398.947 781.302L402.134 742.549Z" fill="#0F344E"/>
<path d="M441.198 748.132C442.237 741.008 447.541 799.992 447.541 799.992L443.536 800.134C443.536 800.134 440.16 755.256 441.198 748.132Z" fill="#0F344E"/>
<path d="M414.211 715.554L431.686 727.758C431.686 727.758 411.419 736.86 414.211 715.554Z" fill="white"/>
<path d="M431.686 727.756L437.282 721.695C441.003 734.44 431.686 727.756 431.686 727.756Z" fill="white"/>
<path d="M439.661 786.874L437.469 800.441H460.74C460.74 800.441 459.847 789.635 439.661 786.874Z" fill="#FABC8B"/>
<path d="M500.109 790.375L500.445 800.44H519.696C519.696 800.44 520.465 791.94 500.109 790.375Z" fill="#FABC8B"/>
<path d="M436.318 975.049C436.318 975.049 431.633 969.146 431.866 964.7C432.098 960.253 442.898 936.021 442.898 936.021L426.022 931.631L420.504 949.287C420.504 949.287 413.485 954.95 417.208 962.853C420.929 970.755 433.781 984.274 436.318 975.049Z" fill="#FABC8B"/>
<path d="M420.503 949.287C420.503 949.287 415.604 951.477 414.922 954.763C414.24 958.05 416.19 962.541 415.945 966.807C415.7 971.073 414.113 979.839 414.113 979.839L416.384 980.43L419.938 970.098C419.938 970.098 419.79 981.318 425.955 982.921C432.119 984.525 443.616 989.594 442.209 983.686C440.802 977.778 436.315 975.052 436.315 975.052C436.315 975.052 427.749 978.02 424.752 968.234C421.757 958.446 417.868 952.758 420.503 949.287Z" fill="#231527"/>
<path d="M421.594 945.792L434.923 955.041L436.093 950.837L421.594 945.792Z" fill="#CE8451"/>
<path d="M498.859 974.975C498.859 974.975 492.84 970.442 491.946 966.081C491.052 961.72 495.403 935.548 495.403 935.548H477.966L477.071 954.024C477.071 954.024 471.703 961.272 477.295 967.983C482.885 974.692 498.727 984.54 498.859 974.975Z" fill="#FABC8B"/>
<path d="M477.069 954.022C477.069 954.022 472.878 957.375 473.046 960.727C473.214 964.08 476.231 967.935 477.069 972.125C477.906 976.316 478.577 985.199 478.577 985.199H480.924L481.761 974.304C481.761 974.304 484.443 985.199 490.812 985.199C497.181 985.199 509.585 987.211 506.735 981.846C503.885 976.482 498.857 974.974 498.857 974.974C498.857 974.974 491.315 980.002 485.952 971.286C480.589 962.571 475.392 958.047 477.069 954.022Z" fill="#231527"/>
<path d="M477.066 954.022L492.328 957.249L492.745 953.683L477.066 954.022Z" fill="#CE8451"/>
<path d="M395.645 712.755C403.698 700.9 407.174 692.471 408.171 682.11C409.1 672.458 413.487 664.949 419.771 660.549C418.266 659.745 417.193 658.634 416.741 657.232C415.217 652.503 421.221 646.336 430.151 643.46C439.081 640.584 447.556 642.088 449.079 646.817C450.18 650.235 447.34 654.395 442.317 657.529C443.395 657.866 444.479 658.265 445.567 658.735C463.685 666.565 459.171 694.289 457.829 702.404C456.487 710.518 458.094 726.226 459.305 734.812C460.171 740.963 459.599 744.765 456.5 747.091C454.158 748.916 451.573 748.11 449.283 746.447C446.627 744.992 444.507 742.25 442.83 739.109C442.822 739.096 442.814 739.083 442.814 739.083C442.814 739.083 442.228 743.735 439.375 739.708C436.523 735.681 437.362 721.758 437.362 721.758L437.279 721.696C437.601 719.362 438.111 717.79 438.111 717.79C438.113 717.786 438.113 717.782 438.114 717.778C439.928 718.071 441.605 718.006 442.958 717.407C448.482 714.956 455.089 706.203 454.674 700.492C454.354 696.075 455.447 690.956 455.961 688.857C455.961 688.857 451.475 686.747 452.013 680.322C452.013 680.322 439.031 689.389 436.687 683.401C436.687 683.401 423.382 688.801 424.276 682.884L419.552 684.884C419.552 684.884 419.992 702.569 418.723 701.343C417.457 700.121 414.956 684.387 414.942 684.301C413.274 683.361 411.64 683.112 410.354 683.797C407.471 685.336 407.438 690.898 410.28 696.219C412.759 700.866 416.612 703.793 419.467 703.436C419.806 704.312 420.182 705.134 420.572 705.916C420.472 706.186 420.356 706.454 420.241 706.723C420.176 706.877 420.117 707.031 420.047 707.185C419.874 707.564 419.685 707.941 419.486 708.313C419.464 708.353 419.445 708.394 419.424 708.436C419.201 708.848 418.967 709.258 418.721 709.661C417.375 711.871 415.712 713.907 414.208 715.554C413.99 715.586 398.396 717.867 391.705 721.535C392.017 719.357 393.109 716.489 395.645 712.755Z" fill="#010000"/>
<path d="M416.506 706.604C416.506 707.747 417.002 708.672 417.616 708.672C418.229 708.672 418.726 707.745 418.726 706.604C418.726 705.462 418.229 704.534 417.616 704.534C417.002 704.534 416.506 705.462 416.506 706.604Z" fill="white"/>
<path d="M378.221 824.088C378.221 824.088 379.707 859.046 398.945 859.493C418.182 859.94 439.376 864.043 439.376 864.043L417.614 944.409L444.27 953.683L470.628 880.09L473.711 953.683H498.316C498.316 953.683 513.527 852.336 509.5 847.862C505.473 843.389 456.869 824.089 456.869 824.089L378.221 824.088Z" fill="#0F344E"/>
<path d="M479.303 845.738C476.403 843.416 439.484 828.935 429.537 825.053L378.221 824.089H456.871L460.738 825.641L430.825 825.078C443.033 828.335 480.963 838.882 484.337 845.068C488.363 852.449 475.557 874.835 474.745 883.271C473.935 891.707 473.711 953.684 473.711 953.684L470.626 880.09C470.626 880.09 482.659 848.421 479.303 845.738Z" fill="#231527"/>
<path d="M188.723 800H331.477H466.523H609.277C615.199 800 620 805.288 620 811.808V973.192C620 979.713 615.199 985 609.277 985H558.961C553.038 985 548.238 979.712 548.238 973.192C548.238 966.67 553.038 961.384 558.961 961.384H598.554V823.616H466.523H331.477H199.446V961.384H239.039C244.961 961.384 249.762 966.671 249.762 973.192C249.762 979.713 244.961 985 239.039 985H188.723C182.801 985 178 979.712 178 973.192V811.808C178 805.286 182.801 800 188.723 800Z" fill="#E0665C"/>
<path d="M280.649 795.48L300.663 748.252C300.962 747.549 301.651 747.093 302.414 747.093H373.185C374.546 747.093 375.466 748.482 374.936 749.736L353.938 799.282C353.639 799.985 352.95 800.442 352.187 800.442H285.591H278.546H246.111C245.06 800.442 244.209 799.59 244.209 798.54C244.209 797.489 245.06 796.638 246.111 796.638H278.898C279.661 796.639 280.35 796.182 280.649 795.48Z" fill="#FFD4AB"/>
<path d="M284.549 800.442H355.319C356.083 800.442 356.772 799.985 357.07 799.282L378.067 749.736C378.598 748.482 377.678 747.093 376.316 747.093H305.545C304.782 747.093 304.093 747.549 303.794 748.252L282.796 797.798C282.267 799.051 283.187 800.442 284.549 800.442Z" fill="#1E1223"/>
<path d="M322.827 786.09C325.54 789.746 331.922 789.605 337.079 785.775C342.238 781.946 344.22 775.879 341.506 772.223C338.793 768.568 332.411 768.709 327.254 772.538C322.095 776.367 320.113 782.435 322.827 786.09Z" fill="white"/>
<path d="M468.288 795.48L488.302 748.252C488.601 747.549 489.29 747.093 490.053 747.093H560.824C562.186 747.093 563.106 748.482 562.575 749.736L541.577 799.282C541.279 799.985 540.59 800.442 539.826 800.442H473.231H466.185H433.75C432.701 800.442 431.85 799.59 431.85 798.54C431.85 797.489 432.701 796.638 433.75 796.638H466.537C467.302 796.639 467.991 796.182 468.288 795.48Z" fill="#FF840F"/>
<path d="M472.188 800.442H542.959C543.723 800.442 544.412 799.985 544.71 799.282L565.708 749.736C566.239 748.482 565.319 747.093 563.957 747.093H493.186C492.423 747.093 491.734 747.549 491.436 748.252L470.438 797.798C469.907 799.051 470.827 800.442 472.188 800.442Z" fill="#FF840F"/>
<path d="M509.014 786.09C511.728 789.746 518.109 789.605 523.266 785.775C528.425 781.946 530.407 775.879 527.694 772.223C524.98 768.568 518.599 768.709 513.441 772.538C508.283 776.367 506.301 782.435 509.014 786.09Z" fill="white"/>
<path d="M618.637 972.611C618.637 972.611 625.589 967.375 626.622 962.338C627.656 957.3 622.628 927.073 622.628 927.073H642.768L643.802 948.413C643.802 948.413 650.002 956.784 643.544 964.535C637.085 972.284 618.788 983.659 618.637 972.611Z" fill="#FABC8B"/>
<path d="M643.803 948.411C643.803 948.411 648.643 952.284 648.449 956.155C648.255 960.026 644.77 964.48 643.803 969.32C642.835 974.16 642.06 984.42 642.06 984.42H639.35L638.383 971.836C638.383 971.836 635.285 984.42 627.929 984.42C620.573 984.42 606.247 986.744 609.538 980.547C612.829 974.352 618.637 972.61 618.637 972.61C618.637 972.61 627.348 978.417 633.543 968.351C639.738 958.285 645.739 953.059 643.803 948.411Z" fill="#FF840F"/>
<path d="M643.802 948.411L625.031 942.953L643.629 944.842L643.802 948.411Z" fill="#CE8451"/>
<path d="M665.658 972.611C665.658 972.611 672.611 967.375 673.645 962.338C674.679 957.3 669.652 927.073 669.652 927.073H689.792L690.826 948.413C690.826 948.413 697.025 956.784 690.567 964.535C684.108 972.284 665.811 983.659 665.658 972.611Z" fill="#FABC8B"/>
<path d="M690.826 948.411C690.826 948.411 695.666 952.284 695.472 956.155C695.278 960.027 691.793 964.48 690.826 969.32C689.859 974.16 689.084 984.42 689.084 984.42H686.374L685.406 971.836C685.406 971.836 682.309 984.42 674.953 984.42C667.597 984.42 653.27 986.744 656.562 980.547C659.853 974.352 665.66 972.61 665.66 972.61C665.66 972.61 674.371 978.417 680.566 968.351C686.761 958.285 692.762 953.059 690.826 948.411Z" fill="#FF840F"/>
<path d="M672.355 945.187L690.743 946.707L690.588 943.485L672.355 945.187Z" fill="#CE8451"/>
<path d="M704.209 727.378L697.026 853.182L708.652 941.799L656.076 946.707L658.405 849.305L659.548 765.212L656.646 838.228L651.806 945.673L603.5 940.766L618.744 851.244L614.929 727.378H704.209Z" fill="#FF840F"/>
<path d="M693.216 534.324C696.286 536.874 694.96 543.536 690.252 549.207C686.139 554.161 680.805 556.717 677.476 555.583C676.995 555.419 676.556 555.179 676.169 554.857C676.07 554.774 675.987 554.677 675.899 554.585C673.222 551.888 674.559 545.564 679.029 540.106C679.066 540.063 679.098 540.017 679.133 539.974C680.821 537.941 682.715 536.321 684.591 535.184C687.945 533.154 691.246 532.69 693.216 534.324Z" fill="#E89997"/>
<path d="M651.647 568.177C651.647 568.177 653.129 580.923 645.525 588.445C637.921 595.966 639.174 635.25 653.728 628.78C668.281 622.31 684.695 577.163 684.695 577.163C684.695 577.163 675.857 566.006 675.366 556.541C674.877 547.075 650.819 559.684 651.647 568.177Z" fill="#EAA373"/>
<path d="M676.847 563.214C676.053 561.004 675.483 558.728 675.37 556.541C674.879 547.077 650.822 559.686 651.65 568.179C651.65 568.179 662.205 571.826 676.847 563.214Z" fill="#CE8451"/>
<path d="M637.341 527.931C637.341 527.931 637.982 536.675 636.083 543.409C634.181 550.14 639.936 562.238 645.944 566.527C651.951 570.817 666.497 565.992 672.222 561.698C677.945 557.404 683.393 545.015 684.543 539.212C685.693 533.409 680.558 508.822 663.477 508.92C646.395 509.02 636.739 513.084 637.341 527.931Z" fill="#FABC8B"/>
<path d="M629.852 533.331C629.336 513.174 639.928 492 662.815 492C685.703 492 691.341 509.052 694.869 527.395C698.397 545.739 713.042 561.058 713.042 561.058C707.635 571.226 698.937 573.867 693.852 574.514C686.212 571.124 679.121 568.236 679.037 568.201C678.231 566.63 677.466 564.945 676.845 563.213C676.649 562.67 676.468 562.124 676.305 561.574C676.289 561.522 676.276 561.468 676.26 561.415C676.114 560.92 675.981 560.422 675.866 559.925C675.822 559.73 675.79 559.535 675.75 559.338C675.679 558.991 675.607 558.643 675.553 558.299C676.212 557.462 676.853 556.543 677.474 555.582C680.803 556.717 686.136 554.161 690.25 549.206C694.956 543.536 696.284 536.874 693.214 534.324C691.633 533.012 689.193 533.069 686.56 534.186C686.522 534.427 683.816 551.688 679.391 552.746C679.391 552.746 684.595 538.284 681.073 532.582L677.906 530.237C678.681 537.73 661.629 525.329 661.629 525.329C665.246 532.305 642.51 520.678 642.51 520.678C640.973 528.626 637.437 530.757 637.437 530.757C637.473 533.886 637.307 539.059 636.08 543.407C634.179 550.139 639.934 562.237 645.941 566.525C647.414 567.577 649.404 568.071 651.647 568.166C651.647 568.169 651.647 568.173 651.647 568.176C651.647 568.176 651.736 568.956 651.758 570.234C651.754 570.236 636.711 574.734 626.834 578.594C617.713 573.899 616.676 566.405 616.676 566.405C623.652 565.115 630.37 553.489 629.852 533.331Z" fill="#010000"/>
<path d="M561.749 636.306C561.749 636.306 554.993 625.967 551.657 623.708C548.322 621.449 545.068 622.693 541.718 621.175C538.368 619.656 535.431 617.207 528.714 617.718C521.996 618.231 519.464 619.07 515.795 617.52C512.126 615.969 510.999 616.811 512.146 618.708C513.293 620.604 517.992 622.518 517.992 622.518C517.992 622.518 510.686 619.645 511.482 621.842C512.365 624.28 518.794 629.587 518.794 629.587C518.794 629.587 516.167 628.629 512.723 626.91C509.279 625.192 505.283 622.871 506.11 625.73C506.936 628.586 508.844 628.805 513.018 631.031C517.193 633.256 522.12 634.905 524.673 634.238C524.673 634.238 528.622 636.632 530.124 635.428C530.124 635.428 533.578 636.652 535.228 635.501C535.228 635.501 537.839 635.601 540.144 633.771C540.144 633.771 543.294 632.821 544.465 633.483C545.636 634.147 552.251 645.348 552.251 645.348L561.749 636.306Z" fill="#FABC8B"/>
<path d="M518.892 629.465L524.771 634.116C524.839 634.17 524.85 634.267 524.796 634.335C524.753 634.389 524.684 634.406 524.622 634.386C524.606 634.381 524.591 634.372 524.577 634.36L518.698 629.709C518.63 629.655 518.619 629.559 518.673 629.49C518.727 629.424 518.824 629.411 518.892 629.465Z" fill="#E0665C"/>
<path d="M517.682 622.267C519.202 621.425 521.556 621.856 523.714 623.357C524.322 622.58 525.067 622.181 525.928 622.18C527.319 622.177 529.766 623.241 533.51 628.329C534.61 629.825 537.045 630.224 537.069 630.228C537.152 630.243 537.212 630.322 537.2 630.406C537.187 630.491 537.106 630.549 537.022 630.537C536.974 630.529 536.442 630.443 535.765 630.201C534.942 629.909 533.905 629.391 533.259 628.513C529.593 623.53 527.25 622.488 525.93 622.491C525.172 622.493 524.513 622.849 523.966 623.54C525.553 624.745 527.58 627.487 529.071 629.506C529.758 630.435 530.352 631.239 530.757 631.701C532.064 633.189 535.284 635.35 535.316 635.372C535.387 635.42 535.406 635.516 535.359 635.588C535.311 635.659 535.214 635.677 535.143 635.631C535.009 635.542 531.856 633.428 530.522 631.907C530.107 631.436 529.511 630.627 528.819 629.692C527.299 627.633 525.216 624.815 523.653 623.694C521.591 622.216 519.253 621.754 517.832 622.54C517.809 622.553 517.795 622.569 517.79 622.61C517.658 623.854 525.156 630.886 530.228 635.31C530.293 635.367 530.299 635.466 530.242 635.531C530.199 635.58 530.131 635.596 530.072 635.575C530.055 635.569 530.037 635.559 530.021 635.545C528.717 634.408 517.287 624.381 517.479 622.579C517.496 622.439 517.566 622.332 517.682 622.267Z" fill="#E0665C"/>
<path d="M544.027 633.164C547.282 633.809 553.377 630.657 553.439 630.625C553.515 630.586 553.609 630.616 553.649 630.692C553.688 630.768 553.66 630.862 553.582 630.902C553.328 631.034 547.327 634.136 543.965 633.47C543.957 633.469 543.951 633.467 543.943 633.464C543.872 633.439 543.827 633.364 543.843 633.286C543.861 633.202 543.943 633.148 544.027 633.164Z" fill="#E0665C"/>
<path d="M536.344 629.098C536.31 629.173 536.226 629.207 536.15 629.18C536.145 629.179 536.142 629.177 536.139 629.176C536.061 629.141 536.025 629.049 536.061 628.969C536.558 627.859 537.858 627.84 538.239 627.859C539.591 625.511 544.184 622.997 544.381 622.889C544.458 622.847 544.553 622.876 544.593 622.951C544.634 623.027 544.605 623.121 544.531 623.162C544.483 623.189 539.705 625.803 538.464 628.094C538.434 628.15 538.372 628.181 538.31 628.175C538.293 628.177 536.825 628.022 536.344 629.098Z" fill="#E0665C"/>
<path d="M679.033 568.198C679.033 568.198 704.539 578.576 711.078 583.155C717.62 587.733 734.055 683.486 734.055 688.391C734.055 693.297 722.852 707.756 716.965 706.12C711.078 704.486 704.211 703.76 704.211 703.76L707.028 724.097C707.268 725.831 705.921 727.377 704.17 727.377H613.451C611.776 727.377 610.453 725.957 610.572 724.287L614.277 672.316C614.277 672.316 602.87 697.479 595.347 694.208C587.826 690.938 536.115 639.076 536.115 639.076L556.587 622.87L594.202 648.386C594.202 648.386 614.931 586.097 618.854 582.499C622.779 578.901 651.762 570.235 651.762 570.235C651.762 570.235 653.357 595.254 654.175 597.052C654.992 598.852 679.033 568.198 679.033 568.198Z" fill="#0F344E"/>
<path d="M700.708 656.897L700.645 597.054L707.878 661.741L714.853 674.335L674.527 644.541L700.708 656.897Z" fill="#E0CB96"/>
<path d="M622.879 594.311L614.276 672.316L607.6 684.539L622.879 594.311Z" fill="#E0CB96"/>
<path d="M704.209 703.761L706.311 718.931L699.35 704.37L664.86 667.167L645.381 661.224L667.192 664.472L704.209 703.761Z" fill="#E0CB96"/>
<path d="M679.037 568.202C679.037 568.202 687.083 613.099 654.172 597.054C654.172 597.054 676.682 579.426 679.037 568.202Z" fill="#E0CB96"/>
<path d="M654.172 597.054C654.172 597.054 634.783 602.354 651.759 570.236C651.759 570.236 648.393 591.014 654.172 597.054Z" fill="#E0CB96"/>
<path d="M654.176 597.054L679.041 568.202C687.632 605.613 654.176 597.054 654.176 597.054Z" fill="white"/>
<path d="M651.762 570.236L654.175 597.054C654.175 597.054 631.816 596.799 651.762 570.236Z" fill="white"/>
<path d="M650.265 645.205C648.577 644.62 642.638 642.358 636.792 637.596C629.889 631.973 651.28 640.643 658.735 643.82C666.191 646.998 665.302 641.324 663.327 637.313C661.353 633.301 658.39 627.284 668.89 637.496C671.481 640.015 673.277 642.39 674.524 644.541L667.19 664.471C657.466 666.477 643.861 661.116 639.977 658.626C634.252 654.955 647.478 656.489 647.478 656.489C647.478 656.489 635.183 651 631.725 647.618C628.955 644.908 641.561 648.126 646.685 649.513C643.116 648.453 635.737 645.924 630.843 641.89C624.712 636.842 646.729 644.031 650.265 645.205Z" fill="#FABC8B"/>
<path d="M695.455 731.869C695.455 731.885 695.461 731.899 695.459 731.917C693.72 746.788 702.741 752.83 703.127 753.079C703.486 753.313 703.589 753.793 703.355 754.152C703.208 754.38 702.958 754.506 702.704 754.506C702.561 754.506 702.417 754.466 702.286 754.384C701.869 754.115 692.085 747.618 693.917 731.785L614.93 727.38H704.169L703.927 732.342L695.455 731.869Z" fill="#260D56"/>
<path d="M697.025 853.182L708.651 941.799L690.049 852.019L700.056 800.109L697.025 853.182Z" fill="#260D56"/>
<path d="M201.307 526.5H167.791C165.848 526.5 164.273 528.075 164.273 530.018C164.273 531.961 165.848 533.536 167.791 533.536H201.307C203.25 533.536 204.825 531.961 204.825 530.018C204.824 528.075 203.249 526.5 201.307 526.5Z" fill="#FF840F"/>
<path d="M185.492 526.5H144.941V533.536H185.492V526.5Z" fill="#FFD4AB"/>
<path d="M201.666 528.68H144.836V532H201.666V528.68Z" fill="#EFEAF4"/>
<path d="M185.492 528.68H144.836V532H185.492V528.68Z" fill="#FF840F"/>
<path d="M205.474 519.62H171.959C170.016 519.62 168.441 521.195 168.441 523.138C168.441 525.081 170.016 526.656 171.959 526.656H205.474C207.417 526.656 208.992 525.081 208.992 523.138C208.992 521.195 207.417 519.62 205.474 519.62Z" fill="#FFDBE2"/>
<path d="M189.66 519.62H149.109V526.656H189.66V519.62Z" fill="#FFB7C3"/>
<path d="M205.834 521.8H149.004V525.12H205.834V521.8Z" fill="#EFEAF4"/>
<path d="M189.66 521.8H149.004V525.12H189.66V521.8Z" fill="#FF840F"/>
<path d="M118.84 518.563C118.84 521.113 116.773 523.18 114.222 523.18C111.671 523.18 109.604 521.113 109.604 518.563C109.604 516.013 111.671 513.946 114.222 513.946C116.773 513.946 118.84 516.013 118.84 518.563Z" fill="#EFEAF4"/>
<path d="M132.362 360.048C136.044 360.048 139.029 357.063 139.029 353.381C139.029 349.699 136.044 346.714 132.362 346.714C128.68 346.714 125.695 349.699 125.695 353.381C125.695 357.063 128.68 360.048 132.362 360.048Z" stroke="#EFEAF4" stroke-miterlimit="10"/>
<path d="M601.706 599.601C603.018 594.071 599.598 588.525 594.069 587.214C588.539 585.902 582.993 589.322 581.682 594.851C580.37 600.381 583.789 605.927 589.319 607.238C594.848 608.55 600.394 605.131 601.706 599.601Z" stroke="#EFEAF4" stroke-miterlimit="10"/>
<path d="M472.773 307.046C474.581 307.046 476.046 305.581 476.046 303.773C476.046 301.965 474.581 300.5 472.773 300.5C470.965 300.5 469.5 301.965 469.5 303.773C469.5 305.581 470.965 307.046 472.773 307.046Z" fill="#EFEAF4"/>
<path d="M379.636 281.062C382.691 281.062 385.167 278.586 385.167 275.531C385.167 272.476 382.691 270 379.636 270C376.582 270 374.105 272.476 374.105 275.531C374.105 278.586 376.582 281.062 379.636 281.062Z" fill="#EFEAF4"/>
<path d="M712.48 363.203C712.48 366.144 710.096 368.529 707.154 368.529C704.213 368.529 701.828 366.145 701.828 363.203C701.828 360.262 704.212 357.877 707.154 357.877C710.096 357.877 712.48 360.262 712.48 363.203Z" fill="#EFEAF4"/>
<path d="M723.835 575.39C723.835 577.814 721.87 579.78 719.445 579.78C717.021 579.78 715.055 577.815 715.055 575.39C715.055 572.966 717.02 571 719.445 571C721.87 571 723.835 572.965 723.835 575.39Z" fill="#EFEAF4"/>
<path d="M53.4666 875.763C52.6831 875.253 51.6378 875.479 51.1312 876.261C42.1795 890.065 37.843 902.106 35.7862 911.289C31.6101 894.903 21.7297 879.348 21.2214 878.555C20.7182 877.769 19.6729 877.538 18.8894 878.045C18.1041 878.548 17.8745 879.593 18.3794 880.378C18.5263 880.606 32.9847 903.359 34.1685 922.065C33.8291 926.925 34.2158 929.774 34.263 930.095C34.3863 930.932 35.1074 931.533 35.9315 931.533C36.0125 931.533 36.0952 931.528 36.178 931.515C37.1 931.381 37.7383 930.523 37.6066 929.601C37.5745 929.387 34.7342 907.757 53.9682 878.097C54.4714 877.317 54.2485 876.27 53.4666 875.763Z" fill="#FF840F"/>
<path d="M52.5085 856.135C35.8294 841.398 29.4615 846.074 29.9883 830.92C30.5152 815.767 21.9486 804.044 13.6538 801.866C5.35903 799.688 -4.35252 800.078 -8.19763 783.389C-12.0427 766.699 -27.0516 764.901 -34.0157 768.385C-40.9798 771.868 -48.5434 784.957 -37.4927 798.043C-26.4437 811.128 -32.5804 818.665 -35.8125 826.61C-39.0446 834.555 -34.801 848.44 -22.3588 857.106C-9.91669 865.772 -17.4769 868.065 -15.6869 890.249C-13.8969 912.433 32.4116 901.18 32.4116 901.18C32.4116 901.18 69.1875 870.872 52.5085 856.135Z" fill="#FFD0A3"/>
<path d="M29.0091 847.394L14.5355 865.443L5.84053 848.063L-0.360269 835.666L8.94937 812.695L-1.80071 832.784L-11.5308 813.334L-31.4082 773.598L-13.2668 812.093L-30.3173 802.616L-12.5761 813.562L3.80568 848.326L-26.3489 839.959L5.96886 852.915L21.991 887.831L-5.56815 881.502L24.627 892.512L29.4178 902.678L32.4118 901.18L16.3373 869.045L29.0091 847.394Z" fill="#FF840F"/>
<path d="M22.1872 848.228C38.8662 833.491 45.2342 838.165 44.7073 823.013C44.1805 807.86 52.7471 796.138 61.0419 793.959C69.3366 791.781 79.0482 792.171 82.8933 775.482C86.7384 758.793 101.747 756.994 108.711 760.478C115.675 763.962 123.239 777.051 112.19 790.136C101.141 803.222 107.278 810.758 110.51 818.703C113.74 826.649 109.498 840.531 97.0562 849.199C84.6157 857.865 92.1742 860.159 90.3842 882.343C88.5942 904.527 42.2858 893.273 42.2858 893.273C42.2858 893.273 5.50817 862.964 22.1872 848.228Z" fill="#FF9608"/>
<path d="M45.6898 839.486L60.1634 857.535L68.8567 840.155L75.0592 827.758L65.7495 804.787L76.4996 824.876L86.2297 805.426L106.107 765.689L87.9674 804.186L105.016 794.708L87.275 805.654L70.8932 840.418L101.048 832.051L68.73 845.008L52.7079 879.925L80.267 873.596L50.0719 884.604L45.2811 894.77L42.2871 893.274L58.3616 861.137L45.6898 839.486Z" fill="#FF840F"/>
<path d="M72.6173 955.851C72.6173 947.191 67.7877 939.45 60.1972 934.242C60.1009 930.48 57.036 927.456 53.25 927.456H21.4455C17.6595 927.456 14.5946 930.48 14.4983 934.244C6.90603 939.452 2.07812 947.193 2.07812 955.852C2.07812 964.512 6.90772 972.253 14.4983 977.461C14.5946 981.223 17.6595 984.249 21.4455 984.249H53.25C57.036 984.249 60.1009 981.225 60.1972 977.462C67.7877 972.251 72.6173 964.51 72.6173 955.851Z" fill="white"/>
<path d="M14.4967 935.087H60.1972C60.6633 935.087 61.0416 934.709 61.0416 934.243C61.0416 933.777 60.6633 933.398 60.1972 933.398H14.4967C14.0306 933.398 13.6523 933.777 13.6523 934.243C13.6523 934.709 14.0306 935.087 14.4967 935.087Z" fill="#FFB36B"/>
<path d="M60.1972 976.614H14.4967C14.0306 976.614 13.6523 976.993 13.6523 977.459C13.6523 977.925 14.0306 978.303 14.4967 978.303H60.1972C60.6633 978.303 61.0416 977.925 61.0416 977.459C61.0416 976.993 60.6633 976.614 60.1972 976.614Z" fill="#FFB36B"/>
</g>
<defs>
<clipPath id="clip0_111_1245">
<rect width="750" height="1024" fill="white"/>
</clipPath>
</defs>
</svg>
