<?xml version="1.0" encoding="utf-8"?>
<!-- Generator: Adobe Illustrator 27.5.0, SVG Export Plug-In . SVG Version: 6.00 Build 0)  -->
<svg version="1.1" xmlns="http://www.w3.org/2000/svg" xmlns:xlink="http://www.w3.org/1999/xlink" x="0px" y="0px"
	 viewBox="0 0 750 500" style="enable-background:new 0 0 750 500;" xml:space="preserve">
<g id="BACKGROUND">
	<rect style="fill:#F9E5DE;" width="750" height="500"/>
</g>
<g id="OBJECTS">
	<g>
		<g>
			<g style="opacity:0.4;">
				<g>
					<g>
						<g>
							<g>
								<polygon style="fill:#F9E5DE;" points="503.43,459.83 116.376,459.828 0,217.27 0,0 281.22,0 								"/>
							</g>
						</g>
					</g>
				</g>
			</g>
		</g>
		<g>
			<g>
				<g>
					<g>
						<g>
							<g>
								<g>
									<path style="fill:#E6C5BA;" d="M733.487,289.087c-2.519-1.259-5.434-2.811-6.498-5.593
										c-0.125-0.328,0.081-0.826,0.396-0.972c2.44-1.137,5.101-1.775,7.733-2.288c1.607-0.313,3.233-0.551,4.864-0.742
										c0.002-0.377,0.021-0.754,0.019-1.131c-0.054-13.148-2.145-26.253-4.459-39.196c-6.424,4.82-12.637,10.033-18.376,15.686
										c1.279,3.398,2.637,6.767,3.881,10.179c0.148,0.407-0.168,0.981-0.601,1.059c-4.002,0.713-8.061-0.624-11.939-1.886
										c-5.867,6.969-10.95,14.537-14.849,22.786c-9.145,19.351-11.091,42.863-1.543,62.018
										c11.066-3.169,21.127-9.029,29.024-17.063c-1.32-3.945-2.246-8.025-3.916-11.84c-1.624-3.71-3.782-7.855-3.269-12.033
										c0.07-0.567,0.706-1.176,1.295-0.743c5.514,4.055,9.628,9.467,13.653,14.922c1.155-1.801,2.223-3.67,3.185-5.61
										c3.846-7.753,6.056-16.191,7.119-24.8C737.361,290.803,735.327,290.007,733.487,289.087z"/>
								</g>
							</g>
						</g>
						<g>
							<g>
								<g>
									<path style="fill:#D4A99B;" d="M716.949,276.734c-7.464,13.266-13.617,27.263-18.355,41.729
										c-4.74,14.47-8.053,29.396-9.903,44.509c-1.045,8.537-1.608,17.129-1.697,25.73c-0.011,1.108,1.71,1.109,1.721,0
										c0.156-15.138,1.801-30.242,4.913-45.058c3.111-14.809,7.653-29.331,13.581-43.255c3.318-7.795,7.072-15.402,11.226-22.785
										C718.979,276.636,717.492,275.768,716.949,276.734z"/>
								</g>
							</g>
						</g>
					</g>
					<g>
						<g>
							<g>
								<g>
									<path style="fill:#E6C5BA;" d="M671.593,286.475c-0.393-0.34-0.311-1.128,0.174-1.352c3.372-1.553,7.12-1.239,10.677-1.893
										c-0.155-5.09-0.774-10.18-1.903-15.177c-1.335-5.909-3.396-11.614-6.004-17.087c-1.878-0.207-3.766-0.302-5.688-0.249
										c-2.958,0.082-6.091,0.778-8.886-0.519c-0.402-0.187-0.553-0.818-0.309-1.178c2.377-3.498,5.719-6.051,8.866-8.807
										c-6.703-10.378-15.335-19.661-24.781-27.474c-4.815,18.515-7.618,37.8-5.892,56.806c0.4-0.062,0.788-0.113,1.133-0.151
										c2.029-0.226,4.244-0.25,6.241,0.236c0.506,0.123,0.833,0.814,0.514,1.264c-2.036,2.876-4.275,5.603-6.618,8.237
										c3.536,19.832,12.799,38.961,28.099,52c8.735-11.03,13.695-24.458,14.959-38.335
										C678.509,290.931,674.726,289.185,671.593,286.475z"/>
								</g>
							</g>
						</g>
						<g>
							<g>
								<g>
									<path style="fill:#D4A99B;" d="M668.843,336.682c-1.378-16.236-3.395-32.419-6.041-48.497
										c-1.505-9.145-3.218-18.254-5.13-27.322c-0.228-1.083-1.888-0.625-1.66,0.458c3.372,16,6.125,32.131,8.22,48.348
										c2.077,16.085,3.524,32.25,4.335,48.448c0.46,9.186,0.711,18.382,0.764,27.579c0.006,1.107,1.728,1.11,1.721,0
										C670.959,369.336,670.226,352.983,668.843,336.682z"/>
								</g>
							</g>
						</g>
					</g>
					<g>
						<g>
							<g>
								<g>
									<path style="fill:#E6C5BA;" d="M629.865,286.786c-0.879-1.254-1.825-2.457-2.774-3.656
										c-4.053,0.991-8.115,3.6-12.335,2.566c-0.351-0.086-0.652-0.465-0.632-0.83c0.226-4.076,2.532-7.528,4.283-11.144
										c-1.538-1.424-3.121-2.802-4.759-4.112c-5.145,3.567-9.981,7.58-15.234,10.998c-0.573,0.373-1.268-0.125-1.295-0.743
										c-0.174-3.949,0.892-7.833,1.891-11.616c0.626-2.371,1.315-4.802,1.625-7.259c-9.273-4.996-19.445-8.314-29.908-9.559
										c-0.689,20.19,4.787,40.544,15.247,57.835c1.431-1.027,2.831-2.095,4.191-3.157c2.049-1.599,4.138-4.411,7.015-4.297
										c0.345,0.014,0.773,0.254,0.83,0.632c0.984,6.582-2.131,12.647-3.428,18.97c5.114,6.153,11.018,11.725,17.46,16.603
										c0.434-0.584,0.853-1.178,1.262-1.778c1.071-1.57,2.057-3.473,3.474-4.766c0.553-0.505,1.445-0.154,1.469,0.608
										c0.11,3.549,0.286,7.096,0.509,10.64c7.591,4.905,15.762,8.88,24.201,11.712
										C648.332,331.392,643.448,306.155,629.865,286.786z"/>
								</g>
							</g>
						</g>
						<g>
							<g>
								<g>
									<path style="fill:#D4A99B;" d="M656.427,385.802c-7.745-23.529-18.271-46.136-31.326-67.188
										c-3.661-5.903-7.522-11.679-11.566-17.326c-0.639-0.893-2.133-0.034-1.486,0.869c14.337,20.014,26.32,41.717,35.556,64.541
										c2.605,6.439,4.991,12.964,7.163,19.562C655.112,387.306,656.775,386.858,656.427,385.802z"/>
								</g>
							</g>
						</g>
					</g>
				</g>
				<g>
					<g>
						<g>
							<g>
								<polygon style="fill:#E6C5BA;" points="695.084,459.823 649.072,459.823 628.417,380.708 715.739,380.708 								"/>
							</g>
						</g>
					</g>
					<g>
						<g>
							<g>
								<polygon style="fill:#D4A99B;" points="711.495,396.962 655.238,396.962 707.843,410.953 								"/>
							</g>
						</g>
					</g>
				</g>
			</g>
			<g>
				<g>
					<g>
						<g>
							<g>
								<g>
									<path style="fill:#E6C5BA;" d="M172.818,289.087c-2.519-1.259-5.434-2.811-6.498-5.593
										c-0.126-0.328,0.081-0.826,0.396-0.972c2.44-1.137,5.101-1.775,7.733-2.288c1.607-0.313,3.233-0.551,4.864-0.742
										c0.002-0.377,0.021-0.754,0.02-1.131c-0.054-13.148-2.145-26.253-4.459-39.196c-6.424,4.82-12.637,10.033-18.376,15.686
										c1.279,3.398,2.637,6.767,3.881,10.179c0.149,0.407-0.168,0.981-0.601,1.059c-4.002,0.713-8.061-0.624-11.939-1.886
										c-5.867,6.969-10.95,14.537-14.849,22.786c-9.145,19.351-11.091,42.863-1.543,62.018
										c11.066-3.169,21.127-9.029,29.024-17.063c-1.32-3.945-2.246-8.025-3.916-11.84c-1.624-3.71-3.782-7.855-3.269-12.033
										c0.07-0.567,0.706-1.176,1.295-0.743c5.514,4.055,9.628,9.467,13.653,14.922c1.155-1.801,2.223-3.67,3.185-5.61
										c3.847-7.753,6.056-16.191,7.119-24.8C176.692,290.803,174.658,290.007,172.818,289.087z"/>
								</g>
							</g>
						</g>
						<g>
							<g>
								<g>
									<path style="fill:#D4A99B;" d="M156.279,276.734c-7.464,13.266-13.617,27.263-18.355,41.729
										c-4.74,14.47-8.053,29.396-9.903,44.509c-1.045,8.537-1.608,17.129-1.697,25.73c-0.011,1.108,1.71,1.109,1.721,0
										c0.156-15.138,1.801-30.242,4.913-45.058c3.111-14.809,7.653-29.331,13.58-43.255c3.319-7.795,7.072-15.402,11.226-22.785
										C158.309,276.636,156.823,275.768,156.279,276.734z"/>
								</g>
							</g>
						</g>
					</g>
					<g>
						<g>
							<g>
								<g>
									<path style="fill:#E6C5BA;" d="M110.924,286.475c-0.393-0.34-0.311-1.128,0.174-1.352c3.372-1.553,7.12-1.239,10.677-1.893
										c-0.155-5.09-0.774-10.18-1.903-15.177c-1.335-5.909-3.396-11.614-6.004-17.087c-1.878-0.207-3.767-0.302-5.688-0.249
										c-2.958,0.082-6.091,0.778-8.886-0.519c-0.402-0.187-0.553-0.818-0.309-1.178c2.377-3.498,5.719-6.051,8.866-8.807
										c-6.703-10.378-15.335-19.661-24.78-27.474c-4.815,18.515-7.618,37.8-5.892,56.806c0.4-0.062,0.788-0.113,1.133-0.151
										c2.029-0.226,4.243-0.25,6.24,0.236c0.506,0.123,0.833,0.814,0.514,1.264c-2.036,2.876-4.275,5.603-6.618,8.237
										c3.536,19.832,12.799,38.961,28.099,52c8.735-11.03,13.695-24.458,14.959-38.335
										C117.84,290.931,114.057,289.185,110.924,286.475z"/>
								</g>
							</g>
						</g>
						<g>
							<g>
								<g>
									<path style="fill:#D4A99B;" d="M108.174,336.682c-1.378-16.236-3.395-32.419-6.041-48.497
										c-1.505-9.145-3.218-18.254-5.13-27.322c-0.228-1.083-1.888-0.625-1.66,0.458c3.373,16,6.125,32.131,8.22,48.348
										c2.077,16.085,3.524,32.25,4.335,48.448c0.46,9.186,0.711,18.382,0.764,27.579c0.006,1.107,1.728,1.11,1.721,0
										C110.289,369.336,109.557,352.983,108.174,336.682z"/>
								</g>
							</g>
						</g>
					</g>
					<g>
						<g>
							<g>
								<g>
									<path style="fill:#E6C5BA;" d="M69.196,286.786c-0.879-1.254-1.824-2.457-2.774-3.656c-4.053,0.991-8.115,3.6-12.335,2.566
										c-0.351-0.086-0.652-0.465-0.632-0.83c0.226-4.076,2.532-7.528,4.282-11.144c-1.538-1.424-3.121-2.802-4.759-4.112
										c-5.145,3.567-9.98,7.58-15.233,10.998c-0.573,0.373-1.268-0.125-1.295-0.743c-0.174-3.949,0.892-7.833,1.891-11.616
										c0.626-2.371,1.315-4.802,1.625-7.259c-9.273-4.996-19.446-8.314-29.908-9.559c-0.689,20.19,4.787,40.544,15.247,57.835
										c1.431-1.027,2.831-2.095,4.191-3.157c2.049-1.599,4.138-4.411,7.015-4.297c0.346,0.014,0.773,0.254,0.83,0.632
										c0.984,6.582-2.131,12.647-3.428,18.97c5.114,6.153,11.018,11.725,17.46,16.603c0.434-0.584,0.853-1.178,1.262-1.778
										c1.071-1.57,2.057-3.473,3.474-4.766c0.553-0.505,1.445-0.154,1.469,0.608c0.11,3.549,0.286,7.096,0.509,10.64
										c7.591,4.905,15.762,8.88,24.201,11.712C87.662,331.392,82.778,306.155,69.196,286.786z"/>
								</g>
							</g>
						</g>
						<g>
							<g>
								<g>
									<path style="fill:#D4A99B;" d="M95.758,385.802c-7.745-23.529-18.271-46.136-31.326-67.188
										c-3.661-5.903-7.521-11.679-11.566-17.326c-0.639-0.893-2.133-0.034-1.486,0.869c14.337,20.014,26.32,41.717,35.556,64.541
										c2.605,6.439,4.991,12.964,7.162,19.562C94.443,387.306,96.106,386.858,95.758,385.802z"/>
								</g>
							</g>
						</g>
					</g>
				</g>
				<g>
					<g>
						<g>
							<g>
								<polygon style="fill:#E6C5BA;" points="134.415,459.823 88.403,459.823 67.748,380.708 155.07,380.708 								"/>
							</g>
						</g>
					</g>
					<g>
						<g>
							<g>
								<polygon style="fill:#D4A99B;" points="150.826,396.962 94.569,396.962 147.173,410.953 								"/>
							</g>
						</g>
					</g>
				</g>
			</g>
		</g>
		<g>
			<g>
				<g>
					<rect x="345.983" y="27.106" style="fill:#444145;" width="58.033" height="58.033"/>
				</g>
				<g>
					<rect x="349.329" y="30.452" style="fill:#FFFFFF;" width="51.341" height="51.341"/>
				</g>
				<g>
					<polygon style="fill:#444145;" points="366.997,74.034 366.095,73.603 374.549,55.908 375.356,55.772 390.587,71.219 
						389.876,71.921 375.144,56.981 					"/>
				</g>
			</g>
			<g>
				<g>
					<rect x="445.983" y="27.106" style="fill:#444145;" width="58.033" height="58.033"/>
				</g>
				<g>
					<rect x="449.329" y="30.452" style="fill:#FFFFFF;" width="51.341" height="51.341"/>
				</g>
				<g>
					<polygon style="fill:#444145;" points="495.491,63.795 474.689,56.515 454.425,40.486 455.046,39.702 475.244,55.679 
						495.82,62.85 					"/>
				</g>
			</g>
			<g>
				<g>
					<rect x="245.983" y="27.106" style="fill:#444145;" width="58.033" height="58.033"/>
				</g>
				<g>
					<rect x="249.329" y="30.452" style="fill:#FFFFFF;" width="51.341" height="51.341"/>
				</g>
				<g>
					<polygon style="fill:#444145;" points="275.224,56.57 274.5,56.123 274.5,35.462 275.5,35.462 275.5,55.314 295.407,45.371 
						295.854,46.266 					"/>
				</g>
			</g>
		</g>
		<g>
			<g>
				<g>
					<rect x="542.91" y="35.105" style="fill:#F9E5DE;" width="169.09" height="93.49"/>
				</g>
				<g>
					<path style="fill:#E6C5BA;" d="M712,35.106v93.484H542.906V35.106H712L712,35.106z M720,27.106H534.906V136.59H720V27.106
						L720,27.106z"/>
				</g>
			</g>
			<g>
				<g>
					<g>
						<rect x="38" y="35.105" style="fill:#F9E5DE;" width="169.09" height="93.49"/>
					</g>
					<g>
						<path style="fill:#E6C5BA;" d="M207.094,35.106v93.484H38V35.106H207.094L207.094,35.106z M215.094,27.106H30V136.59h185.094
							V27.106L215.094,27.106z"/>
					</g>
				</g>
				<g style="opacity:0.6;">
					<g>
						<path style="fill:#F9E5DE;" d="M207.09,86.935v41.66H38v-55c11.58-2.43,23.91-1.28,34.55,3.95c7.66,3.77,14.3,9.3,21.54,13.83
							s15.56,8.14,24.07,7.36c9.89-0.92,18.17-7.51,27.03-12.02c13.83-7.04,30.12-9.13,45.28-5.81
							C196.25,82.165,201.84,84.205,207.09,86.935z"/>
					</g>
					<g>
						
							<ellipse transform="matrix(0.1729 -0.9849 0.9849 0.1729 10.6004 120.1109)" style="fill:#F9E5DE;" cx="76.818" cy="53.744" rx="10.89" ry="10.89"/>
					</g>
				</g>
			</g>
		</g>
		<g style="opacity:0.8;">
			<path style="fill:#F9E5DE;" d="M712,35.105v93.49H583.45c0.99-1.56,1.9-3.18,2.69-4.88c4.27-9.13,5.29-20.08,12.18-27.43
				c6.58-7.03,16.86-8.93,26.42-10.09c2.86-0.35,5.78-0.68,8.67-1.15c6.75-1.07,13.34-2.82,18.64-7
				c9.65-7.59,12.28-20.9,18.82-31.29c2.83-4.49,6.48-8.42,10.69-11.65H712z"/>
		</g>
		<g style="opacity:0.4;">
			<path style="fill:#F9E5DE;" d="M633.41,85.045c-2.89,0.47-5.81,0.8-8.67,1.15c-9.56,1.16-19.84,3.06-26.42,10.09
				c-6.89,7.35-7.91,18.3-12.18,27.43c-0.79,1.7-1.7,3.32-2.69,4.88h-40.54v-93.49h37.73c1.46,1.64,2.92,3.28,4.41,4.88
				c5.28,5.65,11.62,10.98,19.28,12.06c7.08,1,15.27-1.52,20.83,2.98c3.8,3.08,4.83,8.43,5.03,13.33c0.2,4.89-0.12,10.01,1.94,14.46
				C632.5,83.605,632.93,84.345,633.41,85.045z"/>
		</g>
	</g>
	<g>
		<g>
			<g>
				<polygon style="fill:#E7AA91;" points="598.37,242.265 594.77,267.575 155.23,267.575 151.63,242.265 				"/>
			</g>
			<g>
				<polygon style="fill:#E7AA91;" points="592.98,280.175 580.96,364.805 169.04,364.805 157.02,280.175 				"/>
			</g>
			<g>
				<polygon style="fill:#F2C2AE;" points="483.198,294.515 477.232,350.465 272.768,350.465 266.802,294.515 				"/>
			</g>
			<g>
				<polygon style="fill:#DC805A;" points="575.96,364.805 573.57,381.595 176.43,381.595 174.04,364.805 				"/>
			</g>
			<g>
				<polygon style="fill:#E7AA91;" points="578.57,381.595 570.84,436.025 179.16,436.025 171.43,381.595 				"/>
			</g>
			<g>
				<polygon style="fill:#DC805A;" points="560.84,436.025 557.46,459.825 192.54,459.825 189.16,436.025 				"/>
			</g>
			<g>
				<polygon style="fill:#DC805A;" points="589.77,267.575 587.98,280.175 162.02,280.175 160.23,267.575 				"/>
			</g>
			<g>
				<g>
					<path style="fill:#DC805A;" d="M461.948,323.49h-33.896c-0.553,0-1-0.447-1-1c0-0.553,0.447-1,1-1h33.896c0.553,0,1,0.447,1,1
						C462.948,323.042,462.501,323.49,461.948,323.49z"/>
				</g>
				<g>
					<path style="fill:#DC805A;" d="M321.948,323.49h-33.897c-0.552,0-1-0.447-1-1c0-0.553,0.448-1,1-1h33.897c0.552,0,1,0.447,1,1
						C322.948,323.042,322.501,323.49,321.948,323.49z"/>
				</g>
			</g>
		</g>
		<g>
			<g>
				<g>
					<path style="fill:#E9A52D;" d="M315.055,223.59h-4.105c-5.162,0-9.347,4.185-9.347,9.347l0,0h22.8l0,0
						C324.403,227.775,320.218,223.59,315.055,223.59z"/>
				</g>
				<g>
					<rect x="303.624" y="232.937" style="fill:#C98A18;" width="18.758" height="2.653"/>
				</g>
				<g>
					<path style="fill:#C98A18;" d="M314.74,223.59h-3.474l-0.801-4.695c-0.104-0.611,0.366-1.168,0.986-1.168h3.104
						c0.62,0,1.09,0.557,0.986,1.168L314.74,223.59z"/>
				</g>
				<g>
					<path style="fill:#E9A52D;" d="M326.676,242.265h-27.347v-2.675c0-2.209,1.791-4,4-4h19.347c2.209,0,4,1.791,4,4V242.265z"/>
				</g>
			</g>
			<g>
				<g>
					<g>
						<path style="fill:#518F60;" d="M282.905,178.534c-0.256-0.706-1.096-0.987-1.671-0.441c-9.888,9.372-16.19,22.1-17.76,35.62
							c-0.148,1.276,1.853,1.266,2,0c0.607-5.233,1.987-10.339,4.023-15.164c0.076,0.012,0.142,0.037,0.23,0.031
							c4.602-0.319,8.885-2.656,11.524-6.466C283.965,188.195,284.519,182.986,282.905,178.534z"/>
					</g>
					<g>
						<path style="fill:#518F60;" d="M269.763,163.597c-0.331-0.693-1.373-0.609-1.727,0c-8.719,14.975-12.617,32.571-10.99,49.826
							c0.12,1.27,2.121,1.283,2,0c-0.643-6.82-0.403-13.681,0.656-20.408c0.153,0,0.311-0.028,0.475-0.115
							c4.781-2.526,8.521-6.74,10.456-11.79C272.805,175.441,272.362,169.038,269.763,163.597z"/>
					</g>
					<g>
						<path style="fill:#518F60;" d="M251.389,184.779c-0.844-8.164-1.66-16.622-4.746-24.299c-0.319-0.793-1.328-1.006-1.828-0.239
							c-3.507,5.379-5.449,11.902-4.359,18.323c0.949,5.594,4.374,10.794,9.427,13.469c0.079,0.042,0.154,0.048,0.23,0.068
							c0.609,6.212,1.202,12.426,1.804,18.638c0.123,1.27,2.124,1.282,2,0C253.078,202.086,252.283,193.427,251.389,184.779z"/>
					</g>
					<g>
						<path style="fill:#518F60;" d="M246.461,209.995c-2.507-8.638-5.713-17.066-9.599-25.178
							c-3.252-6.788-7.034-13.864-13.716-17.833c-0.709-0.421-1.424,0.14-1.505,0.864c-0.713,6.36-0.198,13.307,3.41,18.795
							c3.052,4.642,8.16,8.015,13.83,7.945c0.042-0.001,0.071-0.019,0.111-0.024c2.121,5.22,3.969,10.549,5.541,15.963
							C244.89,211.76,246.821,211.235,246.461,209.995z"/>
					</g>
				</g>
				<g>
					<g>
						<polygon style="fill:#DC805A;" points="266.251,242.264 245.632,242.264 236.261,205.975 273.749,205.975 						"/>
					</g>
					<g>
						<polygon style="fill:#C46741;" points="272.538,211.835 251.394,211.835 271.501,216.854 						"/>
					</g>
				</g>
			</g>
			<g>
				<g>
					<path style="fill:#518F60;" d="M562.837,202.318c0.069-6.831,1.549-13.877,4.249-20.152c3.688,6.664,5.612,14.26,5.539,21.876
						c2.294-5.118,6.244-9.271,11.131-12.024c-0.59,5.922-2.627,11.694-5.884,16.676c-9.828-0.215-20.015-0.457-29.842-0.673
						c-2.409-4.753-4.013-10.351-4.284-15.673c3.921,2.128,7.527,5.067,10.29,8.569c-0.482-6.29-0.012-12.885,1.131-19.089
						C558.822,188.03,561.515,195.24,562.837,202.318z"/>
				</g>
				<g>
					<g>
						<polygon style="fill:#DC805A;" points="574.618,242.274 553.999,242.274 544.627,205.986 582.115,205.986 						"/>
					</g>
					<g>
						<polygon style="fill:#C46741;" points="580.905,211.846 559.761,211.846 579.868,216.864 						"/>
					</g>
				</g>
			</g>
		</g>
		<text transform="matrix(1 0 0 1 330.8627 334.5592)" style="fill:#DC805A; font-family:'CaviarDreams-Bold'; font-size:29px;">HOTEL</text>
	</g>
	<g>
		<g>
			<g>
				<path style="fill:#663E3E;" d="M440.043,120.507c-3.224-2.609-5.478-6.492-5.786-10.628c-0.308-4.136,1.457-8.451,4.792-10.918
					c3.335-2.466,8.186-2.837,11.693-0.622c6.93-3.125,14.902-3.367,21.549,0.319c6.648,3.687,11.389,10.624,12.408,18.157
					c0.851,6.291-0.662,13.155,2.406,18.713c1.155,2.093,2.942,3.95,3.27,6.317c0.289,2.09-0.631,4.155-0.731,6.264
					c-0.099,2.11,0.625,4.164,1.372,6.14c0.747,1.976,1.539,3.991,1.582,6.104c0.043,2.112-0.829,4.383-2.683,5.396
					c-5.487-0.32-10.914-2.353-15.545-5.315c-4.63-2.962-8.661-6.77-12.443-10.759C453.756,141.053,449.278,127.981,440.043,120.507
					z"/>
			</g>
			<g>
				<g>
					<g>
						<g>
							<g>
								<g>
									<g>
										<path style="fill:#ED7B5F;" d="M439.796,129.18c0.01,0.779,0.029,1.568,0.048,2.356c0.029,0.769,0.058,1.548,0.096,2.327
											c0.048,1.038,0.115,2.068,0.183,3.106c0.25,3.529,0.731,7.28,2.933,10.059c2.241,2.827,6.039,4.173,9.636,3.914
											c3.597-0.25,6.991-1.971,9.722-4.327c0.846-0.721,1.76-1.731,2.654-2.856c2.039-2.519,4.068-5.664,5.395-7.77
											c0.192-6.674-1.818-22.483-1.818-22.483l-12.794-9.199l-14.978,5.506C440.055,116.237,439.7,122.708,439.796,129.18z"/>
									</g>
								</g>
							</g>
						</g>
					</g>
					<g>
						<g>
							<g>
								<g>
									<g>
										<polygon style="fill:#ED7B5F;" points="450.887,156.115 460.059,166.671 473.154,156.115 470.465,135.99 451.801,148.533 
											451.507,150.964 450.991,155.274 										"/>
									</g>
								</g>
							</g>
						</g>
					</g>
					<g>
						<g>
							<g>
								<g>
									<g>
										<path style="fill:#ED7B5F;" d="M465.623,130.039c0,3.618,2.933,6.551,6.551,6.551c3.618,0,6.551-2.933,6.551-6.551
											c0-3.618-2.933-6.551-6.551-6.551C468.556,123.488,465.623,126.421,465.623,130.039z"/>
									</g>
								</g>
							</g>
						</g>
					</g>
					<g>
						<g>
							<g>
								<g>
									<g>
										<path style="fill:#D45D40;" d="M439.793,129.176c0.018,1.559,0.068,3.125,0.147,4.684
											c2.376-0.061,4.267-1.087,4.267-2.339C444.207,130.238,442.237,129.201,439.793,129.176z"/>
									</g>
								</g>
							</g>
						</g>
					</g>
					<g>
						<g>
							<g>
								<g>
									<g>
										<path style="fill:#D45D40;" d="M462.427,131.52c0,1.295-2.013,2.344-4.497,2.344c-2.484,0-4.497-1.049-4.497-2.344
											c0-1.295,2.014-2.344,4.497-2.344C460.414,129.176,462.427,130.225,462.427,131.52z"/>
									</g>
								</g>
							</g>
						</g>
					</g>
					<g>
						<g>
							<g>
								<g>
									<g>
										<path style="fill:#D45D40;" d="M450.991,155.274c3.199,0.006,6.41-0.927,9.056-2.726c3.745-2.542,6.293-6.741,6.87-11.216
											c-1.48,2.069-3.076,4.064-4.5,5.286c-2.738,2.351-6.127,4.07-9.725,4.328c-0.393,0.031-0.792,0.037-1.185,0.018
											L450.991,155.274z"/>
									</g>
								</g>
							</g>
						</g>
					</g>
					<g>
						<g>
							<g>
								<g>
									<g>
										<g>
											<path style="fill:#FFFFFF;" d="M461.091,123.96c-0.942,1.212-2.3,2.071-3.819,2.32c-0.255,0.042-0.515,0.062-0.775,0.057
												c-0.76,0-1.524-0.172-2.247-0.463c-0.494-0.193-0.968-0.442-1.405-0.734c0.182-0.562,0.499-1.072,0.91-1.493
												c0.354-0.364,0.775-0.666,1.233-0.879c0.567-0.265,1.181-0.401,1.8-0.427c0.473-0.021,0.952,0.021,1.415,0.125
												C459.27,122.701,460.258,123.247,461.091,123.96z"/>
										</g>
									</g>
								</g>
							</g>
							<g>
								<g>
									<g>
										<g>
											<path style="fill:#444145;" d="M456.497,126.337c-0.76,0-1.524-0.172-2.247-0.463c-0.349-0.682-0.526-1.462-0.494-2.227
												c0.354-0.364,0.775-0.666,1.233-0.879c0.567-0.265,1.181-0.401,1.8-0.427
												C457.173,123.637,457.069,125.115,456.497,126.337z"/>
										</g>
									</g>
								</g>
							</g>
							<g>
								<g>
									<g>
										<g>
											<path style="fill:#444145;" d="M461.436,124.095c-1.038-1.754-3.178-2.759-5.161-2.497
												c-1.807,0.238-3.431,1.601-3.645,3.629c-0.035,0.334,0.148,0.429,0.24,0.107c0.461-1.618,1.956-2.706,3.6-2.876
												c1.788-0.185,3.484,0.595,4.768,1.799C461.483,124.485,461.607,124.384,461.436,124.095z"/>
										</g>
									</g>
								</g>
							</g>
						</g>
						<g>
							<g>
								<g>
									<g>
										<g>
											<path style="fill:#FFFFFF;" d="M448.526,124.172c-0.942,1.212-2.3,2.071-3.819,2.32
												c-0.255,0.042-0.515,0.063-0.775,0.057c-0.76,0-1.524-0.172-2.247-0.463c-0.494-0.193-0.968-0.442-1.405-0.734
												c0.182-0.562,0.499-1.072,0.91-1.493c0.354-0.364,0.775-0.666,1.233-0.879c0.567-0.265,1.181-0.4,1.8-0.426
												c0.474-0.021,0.952,0.021,1.415,0.125C446.705,122.913,447.694,123.459,448.526,124.172z"/>
										</g>
									</g>
								</g>
							</g>
							<g>
								<g>
									<g>
										<g>
											<path style="fill:#444145;" d="M443.932,126.549c-0.76,0-1.524-0.172-2.247-0.463c-0.349-0.682-0.526-1.462-0.494-2.227
												c0.354-0.364,0.775-0.666,1.233-0.879c0.567-0.265,1.181-0.4,1.8-0.426C444.609,123.849,444.505,125.327,443.932,126.549
												z"/>
										</g>
									</g>
								</g>
							</g>
							<g>
								<g>
									<g>
										<g>
											<path style="fill:#444145;" d="M448.843,124.254c-1.153-1.918-3.165-2.81-5.148-2.549
												c-1.807,0.238-3.416,1.72-3.562,3.676c-0.025,0.334,0.08,0.486,0.172,0.164c0.461-1.618,1.956-2.706,3.6-2.876
												c1.788-0.185,3.483,0.595,4.768,1.799C448.918,124.697,449.016,124.542,448.843,124.254z"/>
										</g>
									</g>
								</g>
							</g>
						</g>
					</g>
					<g>
						<g>
							<g>
								<g>
									<g>
										<path style="fill:#663E3E;" d="M454.171,117.404c2.757,0.183,5.464,1.092,7.772,2.611
											c0.174-0.013,0.359-0.144,0.436-0.301c0.076-0.157,0.063-0.354-0.034-0.499c-1.632-2.45-4.697-3.832-7.64-3.904
											c-0.329,0.188-0.639,0.541-0.742,0.906C453.861,116.582,453.988,117.072,454.171,117.404z"/>
									</g>
								</g>
							</g>
						</g>
						<g>
							<g>
								<g>
									<g>
										<path style="fill:#663E3E;" d="M448.459,117.785c-2.757,0.183-5.463,1.092-7.772,2.611
											c-0.174-0.013-0.36-0.144-0.436-0.301c-0.076-0.157-0.063-0.354,0.034-0.499c1.632-2.45,4.697-3.832,7.64-3.904
											c0.329,0.188,0.639,0.542,0.742,0.907C448.769,116.963,448.642,117.453,448.459,117.785z"/>
									</g>
								</g>
							</g>
						</g>
					</g>
					<g>
						<g>
							<path style="fill:#D45D40;" d="M471.061,129.318c1.091-1.321,2.627-2.173,4.106-2.985c0.543-0.298,1.029,0.532,0.485,0.83
								c-1.378,0.756-2.796,1.53-3.833,2.741c-0.163,0.19-0.292,0.402-0.43,0.609c0.289-0.076,0.583-0.134,0.878-0.162
								c1.03-0.097,2.087,0.027,3.076,0.323c0.592,0.177,0.34,1.105-0.256,0.927c-0.867-0.259-1.759-0.364-2.662-0.301
								c-0.665,0.046-1.351,0.215-1.818,0.716c-0.261,0.688-0.446,1.408-0.57,2.127c-0.105,0.609-1.032,0.35-0.927-0.256
								C469.396,132.236,469.983,130.623,471.061,129.318z"/>
						</g>
					</g>
					<g>
						<g>
							<path style="fill:#D45D40;" d="M447.285,129.165c0.762-0.942,1.723-1.778,2.164-2.936c0.485-1.275,0.616-2.706,0.608-4.06
								c-0.004-0.619,0.958-0.619,0.962,0c0.014,2.208-0.345,4.442-1.771,6.189c-0.614,0.752-1.814,1.659-1.885,2.69
								c-0.084,1.209,1.154,1.996,2.031,2.564c0.518,0.335,0.036,1.168-0.485,0.83c-0.934-0.605-1.891-1.266-2.315-2.342
								C446.156,130.992,446.577,130.041,447.285,129.165z"/>
						</g>
					</g>
				</g>
				<g>
					<g>
						<g>
							<g>
								<path style="fill:#FFFFFF;" d="M439.844,131.536c0.029,0.769,0.058,1.548,0.096,2.327c0.048,1.038,0.115,2.068,0.183,3.106
									c0.25,3.529,0.731,7.28,2.933,10.059c2.241,2.827,6.039,4.173,9.636,3.914c3.597-0.25,6.991-1.971,9.722-4.327
									c0.846-0.721,1.76-1.731,2.654-2.856c-2.135-3.866-3.529-8.107-4.01-12.52C454.018,130.305,446.844,130.402,439.844,131.536
									z"/>
							</g>
						</g>
						<g>
							<g>
								<path style="fill:#FFFFFF;" d="M460.677,132.137c0.135,0,0.269-0.056,0.364-0.166c1.517-1.755,6.486-6.45,8.985-7.61
									c0.241-0.112,0.346-0.398,0.234-0.639c-0.111-0.24-0.398-0.347-0.639-0.234c-2.731,1.267-7.827,6.14-9.308,7.853
									c-0.174,0.201-0.152,0.505,0.049,0.678C460.454,132.099,460.566,132.137,460.677,132.137z"/>
							</g>
						</g>
						<g>
							<g>
								<path style="fill:#FFFFFF;" d="M464.329,144.339c0.135,0,0.27-0.057,0.365-0.168c0.325-0.379,0.742-0.851,1.208-1.379
									c1.646-1.863,3.9-4.415,5.019-6.156c0.144-0.223,0.079-0.521-0.144-0.664c-0.225-0.146-0.521-0.079-0.664,0.144
									c-1.08,1.68-3.306,4.2-4.931,6.04c-0.47,0.532-0.89,1.007-1.217,1.389c-0.173,0.202-0.15,0.505,0.052,0.678
									C464.107,144.3,464.218,144.339,464.329,144.339z"/>
							</g>
						</g>
					</g>
					<g>
						<g>
							<g>
								<path style="fill:#E1DEE2;" d="M441.803,135.019c3.677-2.28,9.438-2.803,14.491-0.956c0.58,0.212,0.003,0.521-0.603,0.42
									c-4.442-0.737-9.001-0.455-13.325,0.795C441.77,135.449,441.277,135.345,441.803,135.019z"/>
							</g>
						</g>
						<g>
							<g>
								<path style="fill:#E1DEE2;" d="M444.969,144.557c4.392,0.648,8.816-0.134,13.137-0.909c0.605-0.109,1.178,0.087,0.603,0.315
									c-4.099,1.628-9.782,2.602-14.025,0.956C444.109,144.697,444.362,144.468,444.969,144.557z"/>
							</g>
						</g>
						<g>
							<g>
								<path style="fill:#E1DEE2;" d="M443.511,140.273c3.871-2.134,9.631-2.469,13.694-0.712c0.563,0.243-0.048,0.337-0.665,0.278
									c-4.153-0.396-8.337-0.189-12.427,0.636C443.509,140.598,442.969,140.572,443.511,140.273z"/>
							</g>
						</g>
					</g>
				</g>
			</g>
			<g>
				<path style="fill:#663E3E;" d="M473.39,116.045c-0.2,2.42-0.41,4.99-0.62,7.47c-0.2-0.02-0.4-0.03-0.6-0.03
					c-1.13,0-2.18,0.28-3.11,0.79c-1.27-2.19-1.8-4.82-1.42-7.33c-2.88-0.77-5.3-3.15-5.98-6.06c-3.81,0.31-7.74-1.37-10.29-4.22
					c-5.16,2.52-9.42,6.93-11.82,12.14c-0.68-3.72-0.52-7.69,0.51-11.33c6.1-3.4,13.16-5.03,20.11-4.32
					C466.31,103.795,470.17,110.765,473.39,116.045z"/>
			</g>
		</g>
		<g>
			<g>
				<g>
					<g>
						<path style="fill:#ED7B5F;" d="M374.94,215.592c-1.258-3.176-3.465-5.958-6.272-7.905c-2.808-1.948-6.206-3.055-9.66-3.147
							c-0.374-0.01-0.801,0.014-1.047,0.301c-0.221,0.258-0.206,0.653-0.05,0.947c0.155,0.294,0.424,0.51,0.691,0.709
							c1.275,0.949,2.765,1.762,4.255,2.335c0.396,1.449,0.904,2.823,1.737,4.067c-4.566-1.395-9.131-2.79-13.697-4.185
							c-0.307-0.094-0.622-0.189-0.945-0.178c-0.323,0.011-0.664,0.148-0.837,0.423c-0.221,0.351-0.106,0.827,0.16,1.136
							c0.265,0.308,0.648,0.488,1.02,0.659c3.158,1.452,6.342,2.955,9.5,4.407c-4.181-1.033-8.363-2.066-12.544-3.099
							c-0.336-0.083-0.679-0.167-1.026-0.141c-0.347,0.025-0.706,0.179-0.894,0.474c-0.266,0.417-0.102,0.99,0.241,1.333
							c0.343,0.343,0.822,0.512,1.285,0.669c3.989,1.353,7.93,2.649,11.982,3.815c-4.653-0.923-9.37-1.554-14.115-1.889
							c-0.459-0.033-1.002-0.026-1.282,0.344c-0.262,0.347-0.137,0.865,0.162,1.17c0.299,0.305,0.723,0.447,1.132,0.579
							c4.472,1.44,8.92,2.893,13.483,4.038c-3.197-0.636-6.455-0.996-9.726-1.072c-0.408-0.01-0.885,0.018-1.125,0.352
							c-0.231,0.32-0.108,0.787,0.168,1.059c0.276,0.272,0.663,0.396,1.036,0.51c7.902,2.416,15.978,4.301,24.157,5.637
							C373.48,224.635,374.187,219.895,374.94,215.592z"/>
					</g>
				</g>
				<g>
					<g>
						<path style="fill:#D45D40;" d="M363.519,226.399c-0.04,0-0.08-0.006-0.119-0.02c-0.197-0.066-0.302-0.278-0.236-0.475
							c0.938-2.793,2.946-5.138,5.436-6.381c-2.009-1.777-3.562-4.123-4.403-6.666c-0.065-0.197,0.042-0.409,0.238-0.474
							c0.196-0.068,0.409,0.041,0.474,0.238c0.859,2.597,2.499,4.979,4.618,6.706c0.102,0.083,0.153,0.213,0.134,0.344
							c-0.019,0.13-0.104,0.241-0.225,0.292c-2.545,1.076-4.624,3.386-5.561,6.179C363.821,226.3,363.675,226.399,363.519,226.399z"
							/>
					</g>
					<g>
						<path style="fill:#D45D40;" d="M358.015,224.035c-0.2-0.034-0.376-0.169-0.375-0.376c0.015-3.533,0.872-7.063,2.478-10.21
							c0.094-0.185,0.318-0.258,0.504-0.164c0.185,0.094,0.258,0.32,0.164,0.504c-1.553,3.043-2.382,6.457-2.396,9.872
							C358.389,223.867,358.221,224.035,358.015,224.035z"/>
					</g>
				</g>
			</g>
			<g>
				<g>
					<path style="fill:#BA3434;" d="M430.3,161.445c-6.909,6.603-17.136,53.715-17.136,53.715
						c-10.887-2.081-39.093-3.231-39.093-3.231l-2.639,19.295c8.614,2.124,30.566,5.008,42.364,6.477
						c4.912,0.612,9.831-1.031,13.393-4.467l0,0c2.039-1.966,3.534-4.428,4.338-7.144l6.38-21.552v-28.407L430.3,161.445z"/>
				</g>
				<g>
					<path style="fill:#A32727;" d="M420.513,221.146c-0.08,0-0.159-0.025-0.228-0.077l-7.35-5.611
						c-0.165-0.125-0.196-0.361-0.07-0.525c0.126-0.166,0.361-0.196,0.525-0.07l7.35,5.611c0.165,0.125,0.196,0.361,0.07,0.525
						C420.738,221.095,420.626,221.146,420.513,221.146z"/>
				</g>
			</g>
			<g>
				<g>
					<g>
						<path style="fill:#BA3434;" d="M489.94,227.885l2.91,14.38h-59.94l4.7-29.12c-6.49-2.44-10.87-9.57-10.11-16.46
							c0.48-4.47,2.84-8.48,4.57-12.63c1.73-4.15,3.13-9.14,1.14-13.18l-2.91-9.43l20.59-5.33l9.17,10.56l13.09-10.56l24,6.16
							l3.06,33.57L489.94,227.885z"/>
					</g>
				</g>
				<g>
					<g>
						<path style="fill:#A32727;" d="M467.371,215.536c-0.43,0-0.859-0.021-1.289-0.062c-2.583-0.25-5.022-1.234-7.381-2.187
							c-0.416-0.168-0.832-0.336-1.248-0.5c-2.719-1.071-5.632-2.006-8.523-1.573c-1.353,0.201-2.677,0.706-3.956,1.195
							c-0.51,0.195-1.021,0.39-1.534,0.568c-1.851,0.64-3.989,1.26-5.964,0.518c-6.684-2.513-11.134-9.758-10.351-16.852
							c0.366-3.415,1.821-6.588,3.229-9.656c0.469-1.023,0.938-2.046,1.368-3.077c1.474-3.535,3.196-8.714,1.15-12.87
							c-0.092-0.186-0.016-0.411,0.17-0.502c0.188-0.09,0.411-0.015,0.503,0.171c2.181,4.43,0.398,9.82-1.132,13.49
							c-0.433,1.039-0.905,2.07-1.378,3.101c-1.382,3.014-2.81,6.13-3.164,9.425c-0.747,6.766,3.495,13.673,9.868,16.069
							c1.744,0.655,3.729,0.073,5.454-0.525c0.507-0.175,1.01-0.367,1.513-0.559c1.317-0.503,2.68-1.023,4.114-1.237
							c3.064-0.454,6.092,0.508,8.908,1.617c0.418,0.165,0.835,0.333,1.254,0.502c2.309,0.933,4.697,1.897,7.172,2.136
							c2.796,0.268,5.649-0.401,8.032-1.891c2.384-1.49,4.236-3.761,5.217-6.393c0.073-0.194,0.29-0.293,0.482-0.221
							c0.194,0.072,0.293,0.289,0.221,0.482c-1.038,2.787-2.999,5.19-5.521,6.768C472.427,214.821,469.907,215.536,467.371,215.536z
							"/>
					</g>
				</g>
			</g>
			<g>
				<g>
					<path style="fill:#ED7B5F;" d="M445.915,242.265h20.475l-1.485-9.846C457.235,233.966,446.1,237.76,445.915,242.265z"/>
				</g>
				<g>
					<g>
						<path style="fill:#BA3434;" d="M465.068,242.265l-1.255-10.74l34.149-10.492l-10.962-28.97l10.151-29.789
							c14.748,20.236,28.215,65.962,24.926,72.069c-3.288,6.107-8.769,7.921-8.769,7.921H465.068z"/>
					</g>
					<g>
						<g>
							<path style="fill:#A32727;" d="M465.014,242.184c-0.189,0-0.351-0.141-0.372-0.331l-1.202-10.284
								c-0.022-0.18,0.089-0.349,0.262-0.402l33.767-10.374l-10.819-28.596c-0.073-0.194,0.024-0.41,0.218-0.483
								c0.197-0.073,0.41,0.024,0.483,0.218l10.961,28.97c0.037,0.097,0.032,0.205-0.014,0.298
								c-0.046,0.093-0.128,0.163-0.227,0.193l-33.85,10.4l1.165,9.974c0.024,0.206-0.123,0.392-0.328,0.416
								C465.043,242.183,465.028,242.184,465.014,242.184z"/>
						</g>
						<g>
							<path style="fill:#A32727;" d="M505.191,225.168c-0.059,0-0.118-0.014-0.173-0.042l-7.23-3.759
								c-0.184-0.095-0.256-0.322-0.16-0.505c0.097-0.184,0.325-0.254,0.506-0.16l7.23,3.759c0.184,0.095,0.256,0.322,0.16,0.505
								C505.457,225.094,505.326,225.168,505.191,225.168z"/>
						</g>
					</g>
				</g>
			</g>
			<g>
				<g>
					<polygon style="fill:#A32727;" points="460.06,166.675 467.958,177.241 483.051,158.656 473.15,156.115 					"/>
				</g>
				<g>
					<polygon style="fill:#A32727;" points="450.89,156.115 460.06,166.675 452.456,177.241 444.207,157.845 					"/>
				</g>
			</g>
			<g>
				<g>
					<path style="fill:#A32727;" d="M483.6,189.608c-4.652-1.833-10.769-2.227-15.167,0.141c-0.964,0.519-0.703,0.794,0.38,0.689
						c4.798-0.462,9.629-0.487,14.434-0.108C484.343,190.417,484.622,190.011,483.6,189.608z"/>
				</g>
				<g>
					<path style="fill:#A32727;" d="M447.742,189.608c-4.652-1.833-10.769-2.227-15.167,0.141c-0.964,0.519-0.703,0.794,0.38,0.689
						c4.798-0.462,9.629-0.487,14.434-0.108C448.485,190.417,448.764,190.011,447.742,189.608z"/>
				</g>
			</g>
		</g>
	</g>
	<g>
		<g>
			<g>
				<path style="fill:#444145;" d="M636.71,73.818c-1.855-2.255-2.642-5.266-2.021-8.12c-2.429-3.873-2.516-9.214-0.181-13.144
					c1.302,1.501,3.476,1.861,5.462,1.887c3.298,0.043,6.565-0.566,9.81-1.156c3.245-0.59,6.522-1.165,9.818-1.053
					c3.296,0.112,6.654,0.962,9.272,2.969c2.617,2.007,4.147,5.203,3.785,8.481c1.159-0.496,2.573-0.131,3.51,0.712
					c0.937,0.844,1.439,2.09,1.594,3.341c0.156,1.251-0.005,2.519-0.214,3.763c-0.83,4.927-2.435,9.723-4.737,14.158
					C661.152,81.278,648.584,77.565,636.71,73.818z"/>
			</g>
			<g>
				<g>
					<g>
						<g>
							<g>
								<g>
									<path style="fill:#ED7B5F;" d="M635.675,87.981c0.01,0.779,0.029,1.568,0.048,2.356c0.029,0.769,0.058,1.548,0.096,2.327
										c0.048,1.039,0.115,2.068,0.183,3.106c0.25,3.529,0.731,7.28,2.933,10.059c2.241,2.827,6.039,4.174,9.636,3.914
										c3.597-0.25,6.991-1.971,9.722-4.327c0.846-0.721,1.76-1.731,2.654-2.856c2.039-2.52,4.068-5.664,5.395-7.77
										c0.193-6.674-1.818-22.483-1.818-22.483l-4.796-12.266l-22.976,8.574C635.934,75.038,635.579,81.51,635.675,87.981z"/>
								</g>
							</g>
						</g>
					</g>
				</g>
				<g>
					<g>
						<g>
							<g>
								<g>
									<polygon style="fill:#ED7B5F;" points="646.766,114.916 657.899,126.673 669.033,114.916 666.344,94.792 647.68,107.334 
										647.386,109.766 646.87,114.075 									"/>
								</g>
							</g>
						</g>
					</g>
				</g>
				<g>
					<g>
						<g>
							<g>
								<g>
									<circle style="fill:#ED7B5F;" cx="668.053" cy="88.84" r="6.551"/>
								</g>
							</g>
						</g>
					</g>
				</g>
				<g>
					<g>
						<g>
							<g>
								<g>
									<path style="fill:#D45D40;" d="M635.672,87.977c0.018,1.559,0.068,3.125,0.147,4.684c2.376-0.061,4.267-1.087,4.267-2.339
										C640.086,89.039,638.116,88.002,635.672,87.977z"/>
								</g>
							</g>
						</g>
					</g>
				</g>
				<g>
					<g>
						<g>
							<g>
								<g>
									<path style="fill:#D45D40;" d="M658.306,90.321c0,1.295-2.013,2.344-4.497,2.344c-2.484,0-4.498-1.049-4.498-2.344
										c0-1.295,2.014-2.344,4.498-2.344C656.293,87.977,658.306,89.027,658.306,90.321z"/>
								</g>
							</g>
						</g>
					</g>
				</g>
				<g>
					<g>
						<g>
							<g>
								<g>
									<path style="fill:#D45D40;" d="M646.87,114.075c3.199,0.006,6.409-0.927,9.055-2.726c3.745-2.542,6.293-6.741,6.87-11.217
										c-1.48,2.069-3.076,4.064-4.5,5.286c-2.738,2.351-6.127,4.07-9.725,4.328c-0.393,0.031-0.792,0.037-1.185,0.019
										L646.87,114.075z"/>
								</g>
							</g>
						</g>
					</g>
				</g>
				<g>
					<g>
						<g>
							<g>
								<g>
									<path style="fill:#444145;" d="M650.05,76.205c2.758,0.183,5.464,1.092,7.772,2.611c0.174-0.013,0.359-0.144,0.436-0.301
										c0.076-0.157,0.063-0.354-0.034-0.499c-1.632-2.45-4.697-3.832-7.64-3.904c-0.329,0.188-0.639,0.541-0.742,0.906
										C649.74,75.384,649.867,75.873,650.05,76.205z"/>
								</g>
							</g>
						</g>
					</g>
					<g>
						<g>
							<g>
								<g>
									<path style="fill:#444145;" d="M644.338,76.586c-2.758,0.183-5.464,1.092-7.772,2.611c-0.174-0.013-0.36-0.144-0.436-0.301
										c-0.076-0.157-0.063-0.354,0.034-0.499c1.632-2.45,4.697-3.832,7.64-3.904c0.329,0.188,0.639,0.542,0.742,0.906
										C644.648,75.765,644.521,76.254,644.338,76.586z"/>
								</g>
							</g>
						</g>
					</g>
				</g>
				<g>
					<g>
						<path style="fill:#D45D40;" d="M666.94,88.12c1.091-1.321,2.627-2.173,4.106-2.984c0.543-0.298,1.029,0.532,0.485,0.83
							c-1.378,0.756-2.796,1.53-3.833,2.741c-0.163,0.19-0.292,0.403-0.43,0.609c0.289-0.076,0.583-0.134,0.878-0.162
							c1.03-0.097,2.087,0.027,3.076,0.323c0.592,0.177,0.34,1.105-0.256,0.927c-0.867-0.259-1.759-0.364-2.662-0.301
							c-0.665,0.046-1.351,0.215-1.818,0.716c-0.261,0.688-0.446,1.408-0.57,2.127c-0.105,0.609-1.032,0.351-0.927-0.256
							C665.275,91.037,665.862,89.425,666.94,88.12z"/>
					</g>
				</g>
				<g>
					<g>
						<path style="fill:#D45D40;" d="M643.164,87.967c0.762-0.942,1.723-1.778,2.164-2.936c0.485-1.275,0.616-2.707,0.608-4.06
							c-0.004-0.619,0.958-0.62,0.962,0c0.014,2.207-0.345,4.442-1.771,6.189c-0.614,0.752-1.814,1.659-1.885,2.69
							c-0.084,1.209,1.154,1.996,2.031,2.564c0.518,0.335,0.036,1.168-0.485,0.83c-0.934-0.605-1.891-1.266-2.315-2.342
							C642.035,89.793,642.456,88.842,643.164,87.967z"/>
					</g>
				</g>
				<g>
					<g>
						<path style="fill:#444145;" d="M657.056,83.058c-1.812-1.231-4.365-1.17-6.36-0.603c0.597-0.752,1.484-1.28,2.442-1.381
							c0.271-0.029,0.728-0.274,0.466-0.335c-1.872-0.432-3.832,0.732-4.443,2.46c-0.12,0.339,0.267,0.753,0.615,0.615
							c2.161-0.858,4.525-1.082,6.803-0.599C657.207,83.348,657.589,83.42,657.056,83.058z"/>
					</g>
					<g>
						<path style="fill:#444145;" d="M640.833,80.198c-0.641,0.008-0.57,0.259,0.06,0.391c1.168,0.245,2.095,1.077,2.517,2.156
							c-1.872-0.345-3.955-0.582-5.693,0.536c-0.227,0.146,0.023,0.371,0.291,0.33c1.982-0.303,4.015-0.209,5.965,0.253
							c0.403,0.095,0.67-0.241,0.615-0.615C644.33,81.489,642.914,80.172,640.833,80.198z"/>
					</g>
				</g>
			</g>
			<g>
				<path style="fill:#444145;" d="M668.44,82.305c-0.13-0.02-0.26-0.02-0.39-0.02c-1.07,0-2.08,0.25-2.97,0.72
					c-1.59-2.15-2.6-4.69-3.25-7.3c-0.72-2.94-0.99-5.96-1.25-8.98c-3.43,2.48-7.57,4.49-11.78,4.89c-4.21,0.41-9.16,0.09-12.05-3
					c0.16-1.41,0.66-3.73,0.82-5.15c7.93-3.62,16.77-5.65,25.49-5.52C667.47,65.165,669.31,73.885,668.44,82.305z"/>
			</g>
			<g>
				<g>
					<g>
						<g>
							<path style="fill:#FFFFFF;" d="M635.723,90.338c0.029,0.769,0.058,1.548,0.096,2.327c0.048,1.039,0.115,2.068,0.183,3.106
								c0.25,3.529,0.731,7.28,2.933,10.059c2.241,2.827,6.039,4.174,9.636,3.914c3.597-0.25,6.991-1.971,9.722-4.327
								c0.846-0.721,1.76-1.731,2.654-2.856c-2.135-3.866-3.529-8.107-4.01-12.521C649.897,89.107,642.724,89.203,635.723,90.338z"
								/>
						</g>
					</g>
					<g>
						<g>
							<path style="fill:#FFFFFF;" d="M656.556,90.938c0.135,0,0.269-0.056,0.364-0.166c1.517-1.755,6.485-6.45,8.985-7.61
								c0.241-0.112,0.346-0.398,0.234-0.639c-0.111-0.24-0.398-0.347-0.639-0.234c-2.731,1.267-7.827,6.14-9.308,7.853
								c-0.174,0.201-0.152,0.505,0.049,0.679C656.333,90.9,656.445,90.938,656.556,90.938z"/>
						</g>
					</g>
					<g>
						<g>
							<path style="fill:#FFFFFF;" d="M660.208,103.14c0.135,0,0.27-0.057,0.365-0.168c0.325-0.379,0.742-0.851,1.208-1.379
								c1.646-1.863,3.9-4.415,5.019-6.156c0.144-0.224,0.079-0.521-0.144-0.664c-0.224-0.146-0.521-0.079-0.664,0.144
								c-1.08,1.68-3.306,4.2-4.931,6.04c-0.47,0.532-0.89,1.007-1.217,1.389c-0.173,0.202-0.15,0.505,0.052,0.678
								C659.986,103.102,660.097,103.14,660.208,103.14z"/>
						</g>
					</g>
				</g>
				<g>
					<g>
						<g>
							<path style="fill:#E1DEE2;" d="M637.682,93.82c3.677-2.28,9.438-2.803,14.491-0.956c0.58,0.212,0.003,0.521-0.603,0.42
								c-4.442-0.737-9.001-0.455-13.325,0.795C637.649,94.251,637.156,94.146,637.682,93.82z"/>
						</g>
					</g>
					<g>
						<g>
							<path style="fill:#E1DEE2;" d="M640.847,103.358c4.392,0.648,8.816-0.134,13.137-0.909c0.605-0.109,1.178,0.087,0.603,0.315
								c-4.099,1.628-9.782,2.602-14.025,0.956C639.988,103.498,640.241,103.269,640.847,103.358z"/>
						</g>
					</g>
					<g>
						<g>
							<path style="fill:#E1DEE2;" d="M639.39,99.075c3.871-2.134,9.631-2.468,13.694-0.712c0.563,0.243-0.048,0.337-0.665,0.278
								c-4.153-0.396-8.337-0.189-12.427,0.636C639.388,99.399,638.848,99.374,639.39,99.075z"/>
						</g>
					</g>
				</g>
			</g>
		</g>
		<g>
			<g>
				<g>
					<g>
						<g>
							<polygon style="fill:#ED7B5F;" points="630.222,443.884 632.652,432.243 616.863,432.243 617.255,445.013 619.41,452.278 
								625.844,453.579 629.29,450.593 							"/>
						</g>
					</g>
					<g>
						<g>
							<path style="fill:#444145;" d="M631.828,459.823h-35.381c-1.297,0-2.348-1.051-2.348-2.348v-1.771
								c0-0.914,0.531-1.746,1.36-2.131l19.253-8.93c0.846-0.392,1.844-0.247,2.542,0.37l0,0c3.435,3.033,8.614,2.955,11.956-0.18
								l1.011-0.949c0.435-0.409,1.01-0.636,1.607-0.636l0,0c1.297,0,2.348,1.052,2.348,2.348v11.878
								C634.177,458.771,633.125,459.823,631.828,459.823z"/>
						</g>
					</g>
				</g>
				<g>
					<g>
						<g>
							<polygon style="fill:#ED7B5F;" points="690.838,443.884 693.268,432.243 677.478,432.243 677.87,445.013 680.026,452.278 
								686.46,453.579 689.906,450.593 							"/>
						</g>
					</g>
					<g>
						<g>
							<path style="fill:#444145;" d="M692.444,459.823h-35.381c-1.297,0-2.348-1.051-2.348-2.348v-1.771
								c0-0.914,0.531-1.746,1.36-2.131l19.253-8.93c0.846-0.392,1.844-0.247,2.542,0.37l0,0c3.435,3.033,8.614,2.955,11.956-0.18
								l1.011-0.949c0.435-0.409,1.01-0.636,1.607-0.636l0,0c1.297,0,2.348,1.052,2.348,2.348v11.878
								C694.792,458.771,693.741,459.823,692.444,459.823z"/>
						</g>
					</g>
				</g>
			</g>
			<g>
				<g>
					<g>
						<polygon style="fill:#444145;" points="695.995,226.581 627.214,226.581 650.622,271.576 668.578,271.576 						"/>
					</g>
					<g>
						<path style="fill:#444145;" d="M695.995,226.581c5.357,22.497,3.134,84.394-3.215,100.81
							c14.786,22.367,6.495,92.009,2.598,108.63h-21.339l-7.718-108.835l-5.162-55.609L695.995,226.581z"/>
					</g>
					<g>
						<path style="fill:#444145;" d="M627.214,226.581l-9.619,99.556l-3.833,109.883h20.788
							c6.084-24.456,19.298-76.673,9.918-108.869c8.112-20.534,13.878-55.576,13.878-55.576L627.214,226.581z"/>
					</g>
				</g>
				<g>
					<g>
						<path style="fill:#5E5D5E;" d="M652.214,272.22c-0.204,0-0.372-0.164-0.375-0.369c-0.003-0.207,0.162-0.378,0.369-0.381
							l16.911-0.27c0.002,0,0.004,0,0.006,0c0.204,0,0.372,0.164,0.375,0.369c0.003,0.207-0.162,0.378-0.369,0.381l-16.911,0.27
							C652.217,272.22,652.216,272.22,652.214,272.22z"/>
					</g>
					<g>
						<path style="fill:#5E5D5E;" d="M659.758,271.951c-0.196,0-0.361-0.152-0.374-0.351l-2.64-40.089
							c-0.014-0.207,0.143-0.385,0.35-0.398c0.198-0.01,0.385,0.143,0.398,0.35l2.64,40.089c0.014,0.206-0.143,0.385-0.35,0.398
							C659.774,271.951,659.765,271.951,659.758,271.951z"/>
					</g>
					<g>
						<path style="fill:#5E5D5E;" d="M662.018,257.806c-0.039,0-0.08-0.006-0.119-0.02l-7.477-2.511
							c-0.146-0.049-0.246-0.181-0.255-0.333l-1.379-22.783c-0.013-0.207,0.144-0.384,0.352-0.397
							c0.225-0.014,0.384,0.146,0.397,0.352l1.364,22.53l7.236,2.431c0.196,0.065,0.303,0.278,0.236,0.475
							C662.321,257.707,662.174,257.806,662.018,257.806z"/>
					</g>
					<g>
						<path style="fill:#5E5D5E;" d="M626.102,247.122c-0.127,0-0.251-0.064-0.321-0.181c-0.106-0.177-0.05-0.408,0.127-0.515
							c5.82-3.515,10.127-9.585,11.521-16.238c0.043-0.204,0.235-0.333,0.444-0.29c0.202,0.043,0.332,0.241,0.29,0.444
							c-1.435,6.854-5.872,13.107-11.866,16.727C626.235,247.105,626.169,247.122,626.102,247.122z"/>
					</g>
					<g>
						<path style="fill:#5E5D5E;" d="M695.429,251.222c-0.048,0-0.096-0.01-0.142-0.028c-4-1.648-7.594-4.491-10.12-8.004
							c-2.525-3.512-4.075-7.824-4.364-12.141c-0.014-0.207,0.143-0.385,0.349-0.399c0.225-0.019,0.386,0.143,0.399,0.349
							c0.279,4.179,1.78,8.353,4.226,11.754c2.445,3.401,5.925,6.152,9.796,7.747c0.191,0.079,0.283,0.298,0.204,0.49
							C695.716,251.134,695.577,251.222,695.429,251.222z"/>
					</g>
					<g>
						<path style="fill:#5E5D5E;" d="M625.885,327.001c-2.692,0-5.382-0.244-8.036-0.73c-0.204-0.037-0.339-0.233-0.302-0.436
							c0.037-0.203,0.236-0.337,0.437-0.302c3.947,0.722,7.977,0.899,11.973,0.528c0.22-0.017,0.39,0.133,0.408,0.338
							c0.02,0.207-0.132,0.39-0.338,0.408C628.648,326.937,627.266,327.001,625.885,327.001z"/>
					</g>
					<g>
						<path style="fill:#5E5D5E;" d="M679.768,329.407c-4.251,0-8.516-0.408-12.69-1.216c-0.203-0.039-0.336-0.236-0.297-0.439
							c0.039-0.202,0.229-0.338,0.44-0.297c4.381,0.847,8.874,1.253,13.317,1.197c0.002,0,0.004,0,0.005,0
							c0.205,0,0.372,0.165,0.375,0.37c0.002,0.208-0.163,0.377-0.37,0.38C680.288,329.405,680.028,329.407,679.768,329.407z"/>
					</g>
					<g>
						<path style="fill:#5E5D5E;" d="M692.481,432.284c-0.015,0-0.029-0.001-0.045-0.003c-0.206-0.024-0.353-0.212-0.327-0.417
							l0.078-0.649c2.067-17.097,4.407-36.475,4.567-53.316c0.173-18.127-2.345-35.112-7.484-50.485
							c-0.023-0.066-0.025-0.138-0.01-0.206c5.593-23.491,7.626-47.619,6.044-71.714c-0.014-0.206,0.143-0.385,0.35-0.398
							c0.2-0.023,0.385,0.143,0.398,0.35c1.585,24.134-0.446,48.301-6.037,71.832c5.143,15.426,7.663,32.459,7.489,50.63
							c-0.16,16.883-2.505,36.282-4.572,53.398l-0.079,0.649C692.831,432.144,692.669,432.284,692.481,432.284z"/>
					</g>
					<g>
						<path style="fill:#5E5D5E;" d="M632.039,432.284c-0.028,0-0.059-0.003-0.088-0.011c-0.201-0.048-0.325-0.251-0.276-0.452
							c4.067-16.917,8.274-34.41,10.401-51.977c2.242-18.524,1.469-36.219-2.297-52.594c-0.018-0.079-0.011-0.163,0.023-0.237
							c7.5-16.726,12.555-34.417,15.023-52.584c0.027-0.204,0.208-0.347,0.422-0.321c0.205,0.028,0.349,0.218,0.32,0.423
							c-2.472,18.196-7.528,35.917-15.03,52.675c3.761,16.425,4.529,34.165,2.282,52.728c-2.132,17.61-6.344,35.124-10.417,52.063
							C632.362,432.168,632.209,432.284,632.039,432.284z"/>
					</g>
				</g>
			</g>
		</g>
		<g>
			<g>
				<g>
					<g>
						<g>
							<path style="fill:#ED7B5F;" d="M583.044,148.707c0.798-3.322,0.592-6.866-0.585-10.074c-1.177-3.208-3.32-6.069-6.093-8.13
								c-0.3-0.223-0.664-0.449-1.03-0.356c-0.329,0.084-0.544,0.415-0.586,0.746c-0.042,0.33,0.054,0.661,0.158,0.977
								c0.497,1.51,1.249,3.032,2.138,4.358c-0.51,1.413-0.884,2.829-0.918,4.326c-2.933-3.767-5.865-7.534-8.798-11.301
								c-0.197-0.254-0.4-0.512-0.671-0.689c-0.271-0.177-0.628-0.261-0.928-0.136c-0.383,0.16-0.562,0.616-0.522,1.021
								c0.04,0.405,0.25,0.772,0.456,1.126c1.748,3.004,3.489,6.064,5.237,9.069c-2.826-3.25-5.653-6.5-8.479-9.75
								c-0.227-0.261-0.459-0.527-0.758-0.705c-0.299-0.179-0.681-0.26-1.004-0.127c-0.458,0.189-0.653,0.751-0.569,1.229
								c0.083,0.478,0.378,0.892,0.667,1.286c2.485,3.401,4.964,6.728,7.608,10.012c-3.276-3.431-6.772-6.661-10.461-9.663
								c-0.357-0.291-0.805-0.598-1.247-0.456c-0.414,0.133-0.61,0.629-0.54,1.05c0.069,0.421,0.335,0.782,0.593,1.125
								c2.83,3.75,5.634,7.497,8.708,11.058c-2.249-2.359-4.708-4.527-7.34-6.47c-0.328-0.242-0.735-0.494-1.123-0.36
								c-0.373,0.129-0.541,0.582-0.472,0.963c0.069,0.381,0.315,0.705,0.554,1.012c5.075,6.521,10.598,12.708,16.52,18.504
								C576.648,155.265,579.954,151.794,583.044,148.707z"/>
						</g>
					</g>
					<g>
						<g>
							<path style="fill:#D45D40;" d="M567.701,151.048c-0.115,0-0.229-0.053-0.302-0.153c-0.123-0.167-0.087-0.401,0.079-0.524
								c2.373-1.745,5.359-2.51,8.116-2.093c-0.621-2.61-0.542-5.422,0.232-7.985c0.062-0.198,0.271-0.311,0.468-0.251
								c0.198,0.06,0.31,0.269,0.251,0.467c-0.792,2.617-0.819,5.508-0.079,8.141c0.035,0.126,0.002,0.263-0.088,0.358
								c-0.091,0.096-0.224,0.136-0.353,0.11c-2.699-0.583-5.731,0.111-8.103,1.856
								C567.856,151.024,567.778,151.048,567.701,151.048z"/>
						</g>
						<g>
							<path style="fill:#D45D40;" d="M564.558,145.948c-0.075,0-0.151-0.023-0.217-0.069c-0.169-0.12-0.209-0.354-0.089-0.522
								c2.043-2.881,4.775-5.277,7.899-6.927c0.181-0.097,0.41-0.027,0.507,0.156c0.097,0.183,0.026,0.41-0.157,0.507
								c-3.021,1.596-5.661,3.912-7.638,6.698C564.791,145.892,564.675,145.948,564.558,145.948z"/>
						</g>
					</g>
				</g>
				<g>
					<g>
						<g>
							<path style="fill:#ED7B5F;" d="M707.365,232.715c-2.756,2.019-4.89,4.857-6.065,8.066c-1.175,3.209-1.388,6.777-0.606,10.142
								c0.085,0.365,0.216,0.772,0.556,0.937c0.306,0.149,0.684,0.034,0.929-0.19c0.246-0.225,0.386-0.539,0.511-0.848
								c0.597-1.473,1.007-3.12,1.185-4.707c1.302-0.749,2.503-1.588,3.497-2.708c-0.197,4.77-0.393,9.54-0.59,14.31
								c-0.013,0.321-0.026,0.649,0.067,0.96s0.31,0.605,0.621,0.703c0.395,0.126,0.827-0.107,1.058-0.441
								c0.232-0.335,0.309-0.751,0.38-1.153c0.608-3.423,1.257-6.883,1.865-10.305c0.056,4.307,0.113,8.613,0.169,12.92
								c0.005,0.346,0.01,0.699,0.123,1.028c0.112,0.33,0.351,0.638,0.684,0.746c0.471,0.152,0.983-0.151,1.229-0.57
								c0.246-0.419,0.287-0.925,0.322-1.412c0.302-4.202,0.561-8.342,0.666-12.557c0.282,4.735,0.862,9.459,1.737,14.135
								c0.084,0.453,0.228,0.977,0.657,1.154c0.403,0.166,0.872-0.086,1.091-0.452c0.219-0.366,0.25-0.813,0.274-1.242
								c0.263-4.69,0.546-9.362,0.502-14.066c0.192,3.254,0.667,6.497,1.419,9.681c0.094,0.397,0.241,0.852,0.624,1
								c0.368,0.143,0.789-0.094,0.982-0.43c0.193-0.335,0.215-0.741,0.231-1.131c0.342-8.256,0.126-16.547-0.647-24.797
								C716.483,231.844,711.717,232.357,707.365,232.715z"/>
						</g>
					</g>
				</g>
			</g>
			<g>
				<g>
					<g>
						<path style="fill:#BA3434;" d="M626.297,119.971l20.468-5.055l11.134,11.757l11.134-11.757l25.815,5.278l3.443,31.8
							l-6.423,28.733l4.127,45.854c-13.527,6.878-58.693,5.044-68.78,0C625.151,206.864,621.712,143.127,626.297,119.971z"/>
					</g>
					<g>
						<path style="fill:#BA3434;" d="M694.848,120.194c9.531,10.561,23.232,44.097,25.481,57.798
							c2.249,13.701,2.454,46.419,1.636,55.212h-17.382c-1.431-8.998-2.863-38.649-1.84-47.237
							c-4.452-9.268-10.429-25.561-11.86-38.444S694.848,120.194,694.848,120.194z"/>
					</g>
					<g>
						<path style="fill:#BA3434;" d="M626.297,119.971c-8.826,7.716-17.62,49.432-17.62,49.432
							c-5.726-8.18-20.654-20.449-24.13-23.107l-13.292,12.883c7.771,11.247,26.788,39.467,39.467,39.467
							c12.678,0,18.2-19.222,18.2-19.222L626.297,119.971z"/>
					</g>
				</g>
				<g>
					<g>
						<path style="fill:#A32727;" d="M624.743,189.131c-0.198,0-0.363-0.155-0.374-0.354c-0.777-14.218,0.224-52.802,0.952-59.532
							c0.023-0.204,0.192-0.36,0.413-0.333c0.206,0.023,0.355,0.208,0.333,0.414c-0.728,6.714-1.726,45.218-0.95,59.41
							c0.012,0.207-0.146,0.384-0.353,0.395C624.756,189.131,624.75,189.131,624.743,189.131z"/>
					</g>
					<g>
						<path style="fill:#A32727;" d="M695.449,166.832c-0.148,0-0.287-0.087-0.347-0.231c-2.149-5.197-3.626-10.655-4.387-16.223
							c-0.028-0.205,0.115-0.394,0.32-0.422c0.215-0.028,0.395,0.116,0.422,0.321c0.753,5.504,2.213,10.9,4.338,16.037
							c0.079,0.191-0.012,0.411-0.203,0.49C695.545,166.823,695.497,166.832,695.449,166.832z"/>
					</g>
					<g>
						<path style="fill:#A32727;" d="M702.785,186.4c-0.199,0-0.365-0.157-0.375-0.358c-0.009-0.207,0.151-0.382,0.358-0.392
							l7.634-0.347c0.184-0.011,0.382,0.15,0.392,0.357c0.009,0.207-0.151,0.382-0.358,0.392l-7.634,0.347
							C702.797,186.4,702.791,186.4,702.785,186.4z"/>
					</g>
					<g>
						<path style="fill:#A32727;" d="M613.62,176.617c-0.12,0-0.237-0.058-0.311-0.165l-5.139-7.573
							c-0.116-0.171-0.071-0.404,0.1-0.521c0.17-0.115,0.404-0.072,0.521,0.1l5.139,7.573c0.116,0.171,0.071,0.404-0.1,0.521
							C613.766,176.596,613.693,176.617,613.62,176.617z"/>
					</g>
					<g>
						<path style="fill:#A32727;" d="M677.954,210.406c-0.029,0-0.06-0.003-0.09-0.011c-17.852-4.382-33.691-15.828-43.454-31.403
							c-0.11-0.175-0.058-0.407,0.118-0.517c0.173-0.109,0.406-0.059,0.517,0.119c9.661,15.411,25.333,26.737,42.999,31.073
							c0.201,0.049,0.323,0.253,0.274,0.454C678.276,210.292,678.123,210.406,677.954,210.406z"/>
					</g>
					<g>
						<path style="fill:#A32727;" d="M663.145,216.019c-8.734,0-17.421-2.058-25.229-5.991c-0.185-0.093-0.259-0.319-0.166-0.503
							c0.094-0.185,0.318-0.26,0.504-0.167c8.219,4.14,17.426,6.179,26.623,5.883c0.178-0.001,0.38,0.156,0.387,0.363
							s-0.156,0.38-0.363,0.387C664.316,216.01,663.73,216.019,663.145,216.019z"/>
					</g>
					<g>
						<g>
							<path style="fill:#A32727;" d="M692.233,168.286c-0.027,0-0.055-0.003-0.082-0.009c-0.202-0.045-0.329-0.246-0.284-0.448
								l0.547-2.439c0.045-0.202,0.248-0.331,0.448-0.284c0.202,0.045,0.329,0.246,0.284,0.448l-0.547,2.439
								C692.56,168.168,692.405,168.286,692.233,168.286z"/>
						</g>
						<g>
							<path style="fill:#A32727;" d="M691.684,217.994c-0.196,0-0.362-0.153-0.374-0.352l-0.312-5.003
								c-0.013-0.207,0.145-0.385,0.351-0.398c0.202-0.011,0.386,0.145,0.397,0.351l0.311,5.003c0.014,0.207-0.143,0.385-0.35,0.397
								C691.7,217.994,691.692,217.994,691.684,217.994z M691.061,207.989c-0.197,0-0.362-0.153-0.374-0.352
								c-0.102-1.666-0.207-3.333-0.313-5.002c-0.014-0.207,0.144-0.385,0.351-0.398c0.206-0.027,0.384,0.143,0.397,0.35
								c0.107,1.67,0.211,3.337,0.313,5.004c0.013,0.207-0.144,0.385-0.351,0.397C691.077,207.989,691.069,207.989,691.061,207.989z
								 M690.422,197.984c-0.196,0-0.36-0.152-0.374-0.35c-0.112-1.663-0.227-3.329-0.346-4.999
								c-0.015-0.207,0.141-0.386,0.348-0.401c0.21-0.015,0.386,0.141,0.4,0.347c0.119,1.672,0.233,3.339,0.346,5.002
								c0.014,0.207-0.142,0.386-0.349,0.399C690.438,197.983,690.429,197.984,690.422,197.984z M689.706,187.984
								c-0.194,0-0.358-0.149-0.374-0.346c-0.128-1.658-0.262-3.322-0.402-4.994c-0.017-0.206,0.136-0.388,0.343-0.405
								c0.226-0.022,0.388,0.137,0.405,0.342c0.141,1.673,0.274,3.339,0.402,4.999c0.016,0.207-0.139,0.387-0.345,0.403
								C689.724,187.983,689.714,187.984,689.706,187.984z M690.043,178.07c-0.026,0-0.055-0.003-0.082-0.009
								c-0.202-0.046-0.329-0.246-0.284-0.448l1.095-4.892c0.046-0.201,0.245-0.33,0.448-0.284c0.202,0.045,0.329,0.246,0.284,0.448
								l-1.095,4.891C690.37,177.951,690.214,178.07,690.043,178.07z"/>
						</g>
						<g>
							<path style="fill:#A32727;" d="M691.797,225.141l-0.165-2.491c-0.014-0.207,0.144-0.385,0.35-0.398
								c0.225-0.015,0.385,0.143,0.398,0.35l0.16,2.408l-0.369,0.107L691.797,225.141z"/>
						</g>
					</g>
				</g>
				<g>
					<g>
						<path style="fill:#A32727;" d="M688.862,151.293c-5.451-2.147-12.619-2.61-17.772,0.165c-1.13,0.608-0.824,0.93,0.446,0.808
							c5.622-0.541,11.283-0.571,16.914-0.126C689.733,152.241,690.06,151.765,688.862,151.293z"/>
					</g>
					<g>
						<path style="fill:#A32727;" d="M648.597,150.711c-5.451-2.147-12.619-2.61-17.772,0.165c-1.13,0.608-0.824,0.93,0.446,0.808
							c5.623-0.541,11.283-0.571,16.914-0.126C649.468,151.659,649.795,151.182,648.597,150.711z"/>
					</g>
				</g>
				<g>
					<g>
						<g>
							<polygon style="fill:#A32727;" points="669.033,114.916 657.899,126.673 664.434,136.305 675.693,116.278 							"/>
						</g>
						<g>
							<polygon style="fill:#A32727;" points="646.766,114.916 657.899,126.673 651.007,136.305 641.831,116.135 							"/>
						</g>
					</g>
					<g>
						<g>
							<polygon style="fill:#444145;" points="657.899,126.673 652.885,133.68 655.567,141.534 658.692,141.534 662.364,133.253 
															"/>
						</g>
						<g>
							<polygon style="fill:#444145;" points="655.567,141.534 658.692,141.534 666.068,196.02 657.899,212.021 650.622,196.515 
															"/>
						</g>
					</g>
				</g>
			</g>
		</g>
	</g>
	<g>
		<g>
			<g>
				<g>
					<g>
						<polygon style="fill:#ED7B5F;" points="158.934,443.884 156.503,432.243 172.293,432.243 171.901,445.013 169.745,452.278 
							163.311,453.579 159.865,450.593 						"/>
					</g>
				</g>
				<g>
					<g>
						<path style="fill:#FFFFFF;" d="M157.327,459.823h35.381c1.297,0,2.348-1.051,2.348-2.348v-1.771
							c0-0.914-0.531-1.746-1.36-2.131l-19.252-8.93c-0.846-0.392-1.844-0.247-2.543,0.37l0,0c-3.435,3.033-8.614,2.955-11.956-0.18
							l-1.011-0.949c-0.435-0.409-1.01-0.636-1.607-0.636l0,0c-1.297,0-2.348,1.052-2.348,2.348v11.878
							C154.979,458.771,156.03,459.823,157.327,459.823z"/>
					</g>
				</g>
			</g>
			<g>
				<g>
					<g>
						<polygon style="fill:#ED7B5F;" points="108.934,443.884 106.503,432.243 122.293,432.243 121.901,445.013 119.745,452.278 
							113.311,453.579 109.865,450.593 						"/>
					</g>
				</g>
				<g>
					<g>
						<path style="fill:#FFFFFF;" d="M107.327,459.823h35.381c1.297,0,2.348-1.051,2.348-2.348v-1.771
							c0-0.914-0.531-1.746-1.36-2.131l-19.252-8.93c-0.846-0.392-1.844-0.247-2.542,0.37l0,0c-3.435,3.033-8.614,2.955-11.956-0.18
							l-1.011-0.949c-0.435-0.409-1.01-0.636-1.607-0.636l0,0c-1.297,0-2.348,1.052-2.348,2.348v11.878
							C104.979,458.771,106.03,459.823,107.327,459.823z"/>
					</g>
				</g>
			</g>
		</g>
		<g>
			<g>
				<g>
					<polygon style="fill:#5A86CC;" points="184.1,222.325 116.42,222.325 141.371,263.783 162.779,263.783 					"/>
				</g>
				<g>
					<path style="fill:#5A86CC;" d="M184.1,222.325c2.223,21.492-1.111,90.323-1.588,108.186
						c-0.476,17.863-6.907,105.51-6.907,105.51h-21.674c-1.905-20.006-5.676-90.981-3.672-103.604
						c-4.902-15.243-8.889-68.633-8.889-68.633L184.1,222.325z"/>
				</g>
				<g>
					<path style="fill:#5A86CC;" d="M116.42,222.325c-16.917,26.371-12.093,79.962-8.878,105.15
						c-4.823,20.684-4.555,94.635-2.948,108.545h22.24c4.555-22.531,15.541-93.004,17.417-103.186
						c1.876-10.182,11.254-80.387,11.254-80.387L116.42,222.325z"/>
				</g>
			</g>
			<g>
				<g>
					<path style="fill:#3E6DB8;" d="M146.856,315.979c-0.017,0-0.034-0.001-0.051-0.004c-0.205-0.027-0.349-0.217-0.321-0.422
						l12.04-87.895c0.028-0.206,0.221-0.349,0.422-0.321c0.205,0.028,0.349,0.217,0.321,0.422l-12.04,87.895
						C147.201,315.843,147.04,315.979,146.856,315.979z"/>
				</g>
				<g>
					<path style="fill:#3E6DB8;" d="M149.032,262.998c-0.121,0-0.24-0.059-0.312-0.166c-0.115-0.172-0.069-0.405,0.103-0.521
						c2.318-1.553,4.643-3.179,6.892-4.752c2.208-1.544,4.489-3.14,6.769-4.669c0.433-3.78,0.874-8.301,1.3-12.676
						c0.434-4.454,0.883-9.06,1.325-12.887c0.023-0.205,0.207-0.352,0.415-0.33c0.206,0.024,0.354,0.21,0.33,0.416
						c-0.441,3.821-0.89,8.423-1.323,12.874c-0.433,4.445-0.881,9.04-1.322,12.861c-0.013,0.109-0.072,0.207-0.164,0.268
						c-2.321,1.555-4.649,3.184-6.9,4.758c-2.252,1.574-4.58,3.202-6.903,4.76C149.176,262.978,149.104,262.998,149.032,262.998z"/>
				</g>
				<g>
					<path style="fill:#3E6DB8;" d="M129.857,334.445c-0.195,0-0.359-0.15-0.374-0.348c-0.015-0.207,0.141-0.387,0.347-0.401
						l14.061-1.018c0.204-0.021,0.387,0.141,0.401,0.347c0.015,0.207-0.14,0.387-0.347,0.401l-14.062,1.019
						C129.876,334.445,129.866,334.445,129.857,334.445z"/>
				</g>
				<g>
					<path style="fill:#3E6DB8;" d="M169.178,332.453c-0.596,0-1.192-0.011-1.79-0.033c-0.207-0.008-0.368-0.183-0.36-0.39
						c0.008-0.206,0.154-0.355,0.389-0.36c4.968,0.191,9.905-0.419,14.678-1.804c0.201-0.055,0.407,0.058,0.465,0.256
						c0.058,0.199-0.057,0.407-0.256,0.465C178.028,331.828,173.621,332.453,169.178,332.453z"/>
				</g>
				<g>
					<path style="fill:#3E6DB8;" d="M111.078,252.104c-0.165,0-0.315-0.108-0.361-0.274c-0.056-0.199,0.062-0.406,0.261-0.462
						c9.396-2.614,19.456-13.212,19.456-24.823c0-0.207,0.168-0.375,0.375-0.375c0.207,0,0.375,0.168,0.375,0.375
						c0,11.952-10.344,22.858-20.005,25.546C111.145,252.1,111.111,252.104,111.078,252.104z"/>
				</g>
				<g>
					<path style="fill:#3E6DB8;" d="M144.312,237.941c-11.752,0-22.655-1.769-31.754-5.321c-0.193-0.075-0.288-0.293-0.213-0.485
						c0.075-0.193,0.293-0.288,0.485-0.213c18.791,7.335,45.393,6.997,71.16-0.901c0.201-0.061,0.408,0.051,0.468,0.249
						c0.061,0.198-0.05,0.408-0.249,0.468C170.737,235.868,157.029,237.941,144.312,237.941z"/>
				</g>
			</g>
		</g>
		<g>
			<g>
				<path style="fill:#CD5668;" d="M165.21,43.435c-6.59,0.88-13.89,2.99-21.21,6.33c-9.2,4.2-16.9,9.66-22.24,15.33
					c-0.53-8.93,5.87-18.52,16.42-23.34C148.02,37.265,158.63,38.215,165.21,43.435z"/>
			</g>
			<g>
				
					<ellipse transform="matrix(0.9096 -0.4154 0.4154 0.9096 -14.603 69.5172)" style="fill:#D5717F;" cx="152.477" cy="68.322" rx="41.642" ry="20.401"/>
			</g>
			<g>
				<g>
					<g>
						<g>
							<g>
								<g>
									<g>
										<path style="fill:#ED7B5F;" d="M173.772,87.981c-0.01,0.779-0.029,1.568-0.048,2.356
											c-0.029,0.769-0.058,1.548-0.096,2.327c-0.048,1.039-0.115,2.068-0.183,3.106c-0.25,3.529-0.731,7.28-2.933,10.059
											c-2.241,2.827-6.039,4.174-9.636,3.914c-3.597-0.25-6.991-1.971-9.722-4.327c-0.846-0.721-1.76-1.731-2.654-2.856
											c-2.039-2.52-4.068-5.664-5.395-7.77c-0.192-6.674,1.817-22.483,1.817-22.483l12.794-9.199l14.978,5.506
											C173.512,75.038,173.868,81.51,173.772,87.981z"/>
									</g>
								</g>
							</g>
						</g>
					</g>
					<g>
						<g>
							<g>
								<g>
									<g>
										<polygon style="fill:#ED7B5F;" points="162.681,114.916 153.508,125.472 140.413,114.916 143.102,94.792 161.766,107.334 
											162.061,109.766 162.576,114.075 										"/>
									</g>
								</g>
							</g>
						</g>
					</g>
					<g>
						<g>
							<g>
								<g>
									<g>
										<path style="fill:#ED7B5F;" d="M147.944,88.84c0,3.618-2.933,6.551-6.551,6.551c-3.618,0-6.551-2.933-6.551-6.551
											c0-3.618,2.933-6.551,6.551-6.551C145.011,82.289,147.944,85.222,147.944,88.84z"/>
									</g>
								</g>
							</g>
						</g>
					</g>
					<g>
						<g>
							<g>
								<g>
									<g>
										<path style="fill:#D45D40;" d="M173.774,87.977c-0.018,1.559-0.068,3.125-0.147,4.684
											c-2.376-0.061-4.267-1.087-4.267-2.339C169.36,89.039,171.331,88.002,173.774,87.977z"/>
									</g>
								</g>
							</g>
						</g>
					</g>
					<g>
						<g>
							<g>
								<g>
									<g>
										<path style="fill:#D45D40;" d="M151.14,90.321c0,1.295,2.013,2.344,4.497,2.344s4.497-1.049,4.497-2.344
											c0-1.295-2.014-2.344-4.497-2.344S151.14,89.027,151.14,90.321z"/>
									</g>
								</g>
							</g>
						</g>
					</g>
					<g>
						<g>
							<g>
								<g>
									<g>
										<path style="fill:#D45D40;" d="M162.576,114.075c-3.199,0.006-6.41-0.927-9.055-2.726
											c-3.745-2.542-6.293-6.741-6.87-11.217c1.48,2.069,3.076,4.064,4.5,5.286c2.738,2.351,6.127,4.07,9.725,4.328
											c0.393,0.031,0.792,0.037,1.185,0.019L162.576,114.075z"/>
									</g>
								</g>
							</g>
						</g>
					</g>
					<g>
						<g>
							<g>
								<g>
									<g>
										<g>
											<path style="fill:#FFFFFF;" d="M152.477,82.761c0.942,1.212,2.3,2.071,3.819,2.32c0.255,0.042,0.515,0.062,0.775,0.057
												c0.76,0,1.524-0.172,2.248-0.463c0.494-0.192,0.968-0.442,1.405-0.733c-0.182-0.562-0.5-1.072-0.911-1.493
												c-0.354-0.364-0.775-0.666-1.233-0.879c-0.567-0.265-1.181-0.4-1.8-0.427c-0.473-0.021-0.952,0.021-1.415,0.125
												C154.298,81.502,153.309,82.048,152.477,82.761z"/>
										</g>
									</g>
								</g>
							</g>
							<g>
								<g>
									<g>
										<g>
											<path style="fill:#444145;" d="M157.071,85.138c0.76,0,1.524-0.172,2.248-0.463c0.349-0.682,0.526-1.462,0.494-2.227
												c-0.354-0.364-0.775-0.666-1.233-0.879c-0.567-0.265-1.181-0.4-1.8-0.427C156.394,82.438,156.498,83.916,157.071,85.138z
												"/>
										</g>
									</g>
								</g>
							</g>
							<g>
								<g>
									<g>
										<g>
											<path style="fill:#444145;" d="M152.131,82.897c1.038-1.754,3.178-2.759,5.161-2.497
												c1.807,0.238,3.431,1.601,3.645,3.629c0.035,0.333-0.148,0.429-0.24,0.107c-0.461-1.618-1.956-2.706-3.6-2.876
												c-1.788-0.185-3.484,0.595-4.768,1.799C152.085,83.286,151.96,83.186,152.131,82.897z"/>
										</g>
									</g>
								</g>
							</g>
						</g>
						<g>
							<g>
								<g>
									<g>
										<g>
											<path style="fill:#FFFFFF;" d="M165.041,82.973c0.942,1.212,2.3,2.071,3.819,2.32c0.255,0.042,0.515,0.063,0.775,0.057
												c0.76,0,1.524-0.172,2.248-0.463c0.494-0.193,0.968-0.442,1.405-0.734c-0.182-0.562-0.499-1.072-0.91-1.493
												c-0.354-0.364-0.775-0.666-1.233-0.879c-0.567-0.265-1.181-0.401-1.8-0.426c-0.473-0.021-0.952,0.021-1.415,0.125
												C166.862,81.714,165.873,82.26,165.041,82.973z"/>
										</g>
									</g>
								</g>
							</g>
							<g>
								<g>
									<g>
										<g>
											<path style="fill:#444145;" d="M169.635,85.351c0.76,0,1.524-0.172,2.248-0.463c0.349-0.682,0.526-1.462,0.494-2.227
												c-0.354-0.364-0.775-0.666-1.233-0.879c-0.567-0.265-1.181-0.401-1.8-0.426C168.959,82.65,169.063,84.128,169.635,85.351
												z"/>
										</g>
									</g>
								</g>
							</g>
							<g>
								<g>
									<g>
										<g>
											<path style="fill:#444145;" d="M164.724,83.055c1.153-1.918,3.165-2.81,5.148-2.549c1.807,0.239,3.416,1.72,3.562,3.676
												c0.025,0.334-0.08,0.486-0.172,0.164c-0.461-1.618-1.956-2.706-3.6-2.876c-1.788-0.185-3.484,0.595-4.768,1.799
												C164.649,83.499,164.551,83.343,164.724,83.055z"/>
										</g>
									</g>
								</g>
							</g>
						</g>
					</g>
					<g>
						<g>
							<g>
								<g>
									<g>
										<path style="fill:#444145;" d="M159.396,76.205c-2.757,0.183-5.464,1.092-7.772,2.611
											c-0.174-0.013-0.359-0.144-0.436-0.301c-0.076-0.157-0.063-0.354,0.034-0.499c1.632-2.45,4.697-3.832,7.64-3.904
											c0.329,0.188,0.639,0.541,0.742,0.906C159.706,75.384,159.579,75.873,159.396,76.205z"/>
									</g>
								</g>
							</g>
						</g>
						<g>
							<g>
								<g>
									<g>
										<path style="fill:#444145;" d="M165.108,76.586c2.758,0.183,5.464,1.092,7.772,2.611c0.174-0.013,0.36-0.144,0.436-0.301
											c0.076-0.157,0.063-0.354-0.033-0.499c-1.632-2.45-4.697-3.832-7.64-3.904c-0.329,0.188-0.639,0.542-0.742,0.906
											C164.798,75.765,164.925,76.254,165.108,76.586z"/>
									</g>
								</g>
							</g>
						</g>
					</g>
					<g>
						<g>
							<path style="fill:#ED7B5F;" d="M162.681,114.916l1.987,1.229c0.426,4.265-1.749,15.055-3.881,19.234
								c-4.947-2.943-19.277-14.799-23.158-19.49l2.785-0.974H162.681z"/>
						</g>
					</g>
					<g>
						<g>
							<path style="fill:#D45D40;" d="M142.507,88.12c-1.091-1.321-2.627-2.173-4.106-2.984c-0.543-0.298-1.029,0.532-0.485,0.83
								c1.378,0.756,2.796,1.53,3.833,2.741c0.163,0.19,0.292,0.403,0.43,0.609c-0.289-0.076-0.583-0.134-0.878-0.162
								c-1.03-0.097-2.087,0.027-3.076,0.323c-0.592,0.177-0.34,1.105,0.256,0.927c0.867-0.259,1.759-0.364,2.662-0.301
								c0.665,0.046,1.351,0.215,1.817,0.716c0.261,0.688,0.446,1.408,0.57,2.127c0.105,0.609,1.032,0.351,0.927-0.256
								C144.171,91.037,143.585,89.425,142.507,88.12z"/>
						</g>
					</g>
					<g>
						<g>
							<path style="fill:#D45D40;" d="M166.282,87.967c-0.762-0.942-1.723-1.778-2.164-2.936c-0.485-1.275-0.616-2.707-0.608-4.06
								c0.004-0.619-0.958-0.62-0.962,0c-0.014,2.207,0.345,4.442,1.771,6.189c0.614,0.752,1.814,1.659,1.885,2.69
								c0.084,1.209-1.154,1.996-2.031,2.564c-0.518,0.335-0.036,1.168,0.485,0.83c0.934-0.605,1.891-1.266,2.314-2.342
								C167.411,89.793,166.99,88.842,166.282,87.967z"/>
						</g>
					</g>
				</g>
				<g>
					<path style="fill:#E9A52D;" d="M176.45,78.515c-0.46-3.12-3.21-5.47-6.17-6.53c-2.96-1.06-6.17-1.11-9.3-1.42
						c-3.13-0.32-6.39-0.99-8.79-3.02c-1.99,2.46-2.01,6.03-2.67,9.12c-0.58,2.72-1.86,5.28-3.65,7.4
						c-1.16-1.11-2.74-1.78-4.48-1.78c-3.61,0-6.55,2.94-6.55,6.56c0,3.61,2.94,6.55,6.55,6.55c0.58,0,1.14-0.07,1.66-0.22
						l-2.64,19.74l-2.78,0.97c0.45,0.54,1.04,1.18,1.73,1.89c-1.51,1.6-3.5,2.78-5.58,3.55c-2.88,1.07-6.92,2.09-9.97,2.47
						c-4.66-4.87-5.73-12.81-2.52-18.74c1.7-3.15,4.43-5.67,6.08-8.84c3.16-6.05,2.01-13.36,3.28-20.05
						c1.4-7.37,5.96-14.09,12.28-18.12c6.33-4.03,14.35-5.32,21.62-3.48c5.2,1.32,10.15,4.36,12.85,9
						C180.11,68.205,179.87,74.375,176.45,78.515z"/>
				</g>
				<g>
					<g>
						<g>
							<g>
								<path style="fill:#FFFFFF;" d="M173.723,90.338c-0.029,0.769-0.058,1.548-0.096,2.327c-0.048,1.039-0.115,2.068-0.183,3.106
									c-0.25,3.529-0.731,7.28-2.933,10.059c-2.241,2.827-6.039,4.174-9.636,3.914c-3.597-0.25-6.991-1.971-9.722-4.327
									c-0.846-0.721-1.76-1.731-2.654-2.856c2.135-3.866,3.529-8.107,4.01-12.521C159.549,89.107,166.723,89.203,173.723,90.338z"
									/>
							</g>
						</g>
						<g>
							<g>
								<path style="fill:#FFFFFF;" d="M152.89,90.938c-0.135,0-0.269-0.056-0.364-0.166c-1.517-1.755-6.485-6.45-8.985-7.61
									c-0.241-0.112-0.346-0.398-0.234-0.639c0.111-0.24,0.398-0.347,0.639-0.234c2.731,1.267,7.827,6.14,9.308,7.853
									c0.174,0.201,0.152,0.505-0.049,0.679C153.113,90.9,153.001,90.938,152.89,90.938z"/>
							</g>
						</g>
						<g>
							<g>
								<path style="fill:#FFFFFF;" d="M149.238,103.14c-0.135,0-0.27-0.057-0.365-0.168c-0.325-0.379-0.742-0.851-1.208-1.379
									c-1.646-1.863-3.9-4.415-5.019-6.156c-0.144-0.224-0.079-0.521,0.144-0.664c0.225-0.146,0.521-0.079,0.664,0.144
									c1.08,1.68,3.306,4.2,4.931,6.04c0.47,0.532,0.89,1.007,1.217,1.389c0.173,0.202,0.15,0.505-0.052,0.678
									C149.461,103.102,149.349,103.14,149.238,103.14z"/>
							</g>
						</g>
					</g>
					<g>
						<g>
							<g>
								<path style="fill:#E1DEE2;" d="M171.764,93.82c-3.677-2.28-9.438-2.803-14.491-0.956c-0.58,0.212-0.003,0.521,0.603,0.42
									c4.442-0.737,9.001-0.455,13.325,0.795C171.798,94.251,172.29,94.146,171.764,93.82z"/>
							</g>
						</g>
						<g>
							<g>
								<path style="fill:#E1DEE2;" d="M168.599,103.358c-4.392,0.648-8.816-0.134-13.137-0.909
									c-0.605-0.109-1.178,0.087-0.603,0.315c4.099,1.628,9.782,2.602,14.024,0.956
									C169.458,103.498,169.205,103.269,168.599,103.358z"/>
							</g>
						</g>
						<g>
							<g>
								<path style="fill:#E1DEE2;" d="M170.056,99.075c-3.872-2.134-9.631-2.468-13.694-0.712
									c-0.563,0.243,0.048,0.337,0.665,0.278c4.153-0.396,8.337-0.189,12.427,0.636C170.058,99.399,170.598,99.374,170.056,99.075
									z"/>
							</g>
						</g>
					</g>
				</g>
			</g>
		</g>
		<g>
			<g>
				<g>
					<path style="fill:#ED7B5F;" d="M78.518,224.103c-3.055,2.743-6.883,5.245-8.236,9.122c-0.999,2.862-2.402,6.013-1.543,8.92
						c0.604,2.045,1.589,3.978,2.888,5.669c0.222,0.289,0.461,0.577,0.777,0.757c0.317,0.18,0.73,0.232,1.04,0.04
						c0.323-0.2,0.458-0.616,0.427-0.995c-0.031-0.378-0.077-0.96-0.242-1.302c0.552,0.861,1.317,1.585,2.209,2.087
						c0.399,0.225,0.873,0.409,1.307,0.264c0.348-0.116,0.604-0.433,0.719-0.782c0.114-0.349,0.104-0.727,0.049-1.091
						c-0.179-1.2-0.657-2.382-1.619-3.121c0.058-1.24-0.195-2.435-0.627-3.599c2.235-1.325,4.3-2.827,6.144-4.659
						c0.758,1.978,2.122,3.786,3.765,5.125c-0.701,0.988-1.278,2.164-2.049,3.099c-0.513,0.622-1.04,1.271-1.242,2.051
						c-0.203,0.78,0.016,1.732,0.715,2.133c0.855,0.49,1.917-0.029,2.746-0.562c1.667-1.073,3.34-2.319,4.184-4.114
						c0.827-1.758,0.743-3.791,0.641-5.732c-0.204-3.903-0.408-7.807-0.613-11.71C86.208,225.167,82.268,224.639,78.518,224.103z"/>
				</g>
				<g>
					<path style="fill:#D45D40;" d="M73.762,246.878c-0.145,0-0.283-0.085-0.344-0.227l-2.495-5.796
						c-0.026-0.061-0.036-0.127-0.028-0.193c0.316-2.659,1.282-5.297,2.72-7.429c0.116-0.172,0.349-0.218,0.521-0.102
						c0.171,0.116,0.217,0.349,0.101,0.521c-1.355,2.008-2.271,4.49-2.585,6.999l2.455,5.703c0.082,0.19-0.006,0.411-0.196,0.493
						C73.862,246.868,73.812,246.878,73.762,246.878z"/>
				</g>
			</g>
			<g>
				<g>
					<g>
						<path style="fill:#ED7B5F;" d="M222.128,226.298c3.392,0.408,6.643,1.835,9.241,4.055c2.598,2.22,4.533,5.225,5.501,8.542
							c0.105,0.359,0.19,0.779-0.025,1.089c-0.193,0.279-0.579,0.365-0.903,0.29c-0.324-0.076-0.601-0.281-0.861-0.489
							c-1.243-0.991-2.408-2.226-3.341-3.521c-1.502-0.014-2.96-0.157-4.375-0.645c2.511,4.061,5.021,8.121,7.532,12.182
							c0.169,0.273,0.341,0.553,0.412,0.869c0.072,0.316,0.026,0.68-0.196,0.917c-0.283,0.303-0.773,0.313-1.139,0.134
							c-0.366-0.178-0.637-0.503-0.897-0.819c-2.208-2.685-4.471-5.382-6.679-8.066c2.063,3.781,4.126,7.562,6.189,11.343
							c0.166,0.304,0.334,0.614,0.397,0.956c0.064,0.342,0.007,0.729-0.231,0.985c-0.336,0.363-0.931,0.351-1.351,0.106
							c-0.419-0.245-0.704-0.665-0.974-1.072c-2.324-3.514-4.58-6.995-6.738-10.617c2.076,4.265,3.887,8.667,5.418,13.17
							c0.148,0.436,0.28,0.963-0.007,1.328c-0.269,0.342-0.802,0.353-1.173,0.141c-0.371-0.212-0.617-0.586-0.848-0.948
							c-2.53-3.958-5.067-7.891-7.335-12.012c1.429,2.93,2.605,5.989,3.511,9.133c0.113,0.392,0.207,0.861-0.054,1.178
							c-0.251,0.305-0.734,0.305-1.067,0.107c-0.333-0.198-0.551-0.54-0.756-0.872c-4.347-7.027-8.224-14.359-11.597-21.928
							C213.754,230.011,218.158,228.12,222.128,226.298z"/>
					</g>
				</g>
				<g>
					<g>
						<path style="fill:#D45D40;" d="M214.945,240.372c-0.122,0-0.242-0.06-0.314-0.169c-0.114-0.173-0.065-0.406,0.107-0.52
							c2.463-1.617,4.168-4.215,4.561-6.95c0.019-0.13,0.104-0.241,0.226-0.293c0.12-0.051,0.26-0.036,0.366,0.043
							c2.21,1.611,4.93,2.591,7.66,2.76c0.207,0.013,0.364,0.191,0.352,0.397c-0.013,0.207-0.196,0.358-0.398,0.352
							c-2.673-0.165-5.337-1.07-7.567-2.562c-0.568,2.725-2.325,5.263-4.788,6.88C215.087,240.352,215.015,240.372,214.945,240.372z
							"/>
					</g>
					<g>
						<path style="fill:#D45D40;" d="M218.632,245.094c-0.166,0-0.317-0.11-0.362-0.278c-0.053-0.2,0.065-0.405,0.266-0.459
							c3.299-0.882,6.39-2.552,8.938-4.829c0.155-0.138,0.391-0.125,0.53,0.03c0.138,0.154,0.124,0.392-0.03,0.53
							c-2.635,2.354-5.831,4.082-9.244,4.994C218.696,245.09,218.664,245.094,218.632,245.094z"/>
					</g>
				</g>
			</g>
			<g>
				<g>
					<g>
						<path style="fill:#FFFFFF;" d="M175.96,171.945l8.14,50.38c-9.98,5.27-54.09,5.97-67.68,0l7.21-35.64l-10.27-32.04l3.06-33.57
							l21.21-5.19c3.88,4.7,18.21,16.55,23.16,19.5c2.13-4.18,4.3-14.97,3.88-19.24l18.6,4.1l-2.91,9.43
							c-1.99,4.04-0.59,9.03,1.14,13.18c1.73,4.15,4.09,8.16,4.57,12.63C186.83,162.375,182.45,169.505,175.96,171.945z"/>
					</g>
					<g>
						<path style="fill:#FFFFFF;" d="M183.27,120.245c9.592,3.421,17.003,45.679,18.106,57.19l-18.106,7.411
							c-3.023-8.199-10.749-36.897-10.749-36.897l2.523-19.868L183.27,120.245z"/>
					</g>
					<g>
						<path style="fill:#FFFFFF;" d="M201.376,177.435c5.992,8.988,22.548,40.208,24.913,48.25l-16.714,8.83
							c-6.465-9.145-24.229-38.789-26.306-49.669L201.376,177.435z"/>
					</g>
					<g>
						<path style="fill:#FFFFFF;" d="M116.42,121.075c-9.661,5.088-24.46,42.26-27.455,53.887l19.908,12.094
							c5.109-7.689,13.918-23.369,15.503-31.12C125.962,148.184,116.42,121.075,116.42,121.075z"/>
					</g>
					<g>
						<path style="fill:#FFFFFF;" d="M88.965,174.962c-4.052,11.804-12.508,41.753-13.742,48.8l16.384,3.876
							c4.052-7.928,16.032-32.188,17.265-40.582L88.965,174.962z"/>
					</g>
				</g>
				<g>
					<g>
						<path style="fill:#E1DEE2;" d="M146.196,174.337c-2.536,0.001-5.057-0.715-7.213-2.063c-2.522-1.577-4.483-3.98-5.522-6.768
							c-0.072-0.194,0.026-0.41,0.221-0.482c0.194-0.072,0.41,0.027,0.482,0.221c0.982,2.633,2.834,4.903,5.217,6.393
							c2.383,1.489,5.238,2.159,8.033,1.891c2.477-0.24,4.866-1.205,7.177-2.139c0.417-0.169,0.833-0.337,1.249-0.501
							c2.815-1.107,5.846-2.07,8.909-1.616c1.434,0.213,2.795,0.733,4.112,1.236c0.503,0.192,1.006,0.384,1.514,0.56
							c1.724,0.598,3.711,1.18,5.454,0.525c6.372-2.396,10.615-9.303,9.869-16.068c-0.354-3.296-1.784-6.414-3.166-9.428
							c-0.472-1.03-0.944-2.06-1.378-3.099c-1.53-3.67-3.312-9.061-1.13-13.489c0.091-0.187,0.315-0.263,0.502-0.171
							c0.186,0.091,0.262,0.316,0.171,0.502c-2.046,4.154-0.324,9.334,1.15,12.87c0.43,1.031,0.898,2.053,1.367,3.075
							c1.407,3.069,2.862,6.243,3.229,9.66c0.782,7.094-3.668,14.338-10.351,16.851c-1.974,0.742-4.114,0.122-5.963-0.518
							c-0.515-0.178-1.025-0.373-1.536-0.568c-1.279-0.489-2.602-0.994-3.955-1.195c-2.887-0.432-5.805,0.502-8.524,1.572
							c-0.414,0.163-0.828,0.33-1.243,0.498c-2.36,0.954-4.801,1.94-7.386,2.189C147.056,174.316,146.626,174.337,146.196,174.337z"
							/>
					</g>
					<g>
						<path style="fill:#E1DEE2;" d="M118.283,171.103c-0.071,0-0.142-0.02-0.206-0.062c-0.173-0.114-0.221-0.346-0.106-0.52
							c4.294-6.518,6.702-14.086,6.96-21.887c0.007-0.207,0.175-0.364,0.387-0.363c0.207,0.007,0.37,0.181,0.363,0.387
							c-0.264,7.94-2.713,15.643-7.084,22.276C118.525,171.044,118.405,171.103,118.283,171.103z"/>
					</g>
					<g>
						<path style="fill:#E1DEE2;" d="M108.931,187.702c-0.106,0-0.211-0.045-0.285-0.132c-2.421-2.838-5.516-5.111-8.949-6.572
							c-0.19-0.081-0.279-0.301-0.198-0.492c0.081-0.191,0.303-0.279,0.492-0.198c3.539,1.506,6.729,3.849,9.225,6.776
							c0.135,0.157,0.116,0.394-0.042,0.528C109.104,187.672,109.017,187.702,108.931,187.702z"/>
					</g>
					<g>
						<path style="fill:#E1DEE2;" d="M193.628,181.603c-0.141,0-0.276-0.08-0.34-0.217c-0.087-0.188-0.006-0.411,0.182-0.498
							l7.821-3.645c0.186-0.089,0.411-0.007,0.498,0.182c0.087,0.188,0.006,0.411-0.182,0.498l-7.82,3.645
							C193.736,181.592,193.681,181.603,193.628,181.603z"/>
					</g>
					<g>
						<g>
							<path style="fill:#E1DEE2;" d="M122.759,171.928c-0.153,0-0.296-0.094-0.352-0.246l-0.861-2.348
								c-0.071-0.194,0.028-0.41,0.223-0.481c0.193-0.071,0.41,0.029,0.481,0.223l0.861,2.347c0.071,0.195-0.028,0.41-0.223,0.481
								C122.845,171.921,122.802,171.928,122.759,171.928z"/>
						</g>
						<g>
							<path style="fill:#E1DEE2;" d="M122.686,213.873c-0.023,0-0.046-0.002-0.07-0.006c-0.204-0.039-0.337-0.235-0.299-0.438
								l1.002-5.326c0.039-0.204,0.231-0.339,0.438-0.299c0.204,0.039,0.337,0.234,0.299,0.438l-1.002,5.326
								C123.02,213.747,122.863,213.873,122.686,213.873z M124.687,203.221c-0.023,0-0.046-0.002-0.069-0.006
								c-0.204-0.038-0.338-0.234-0.3-0.438l0.999-5.326c0.038-0.204,0.23-0.339,0.438-0.299c0.204,0.039,0.337,0.234,0.299,0.438
								l-0.999,5.325C125.022,203.095,124.864,203.221,124.687,203.221z M126.69,192.569c-0.023,0-0.046-0.002-0.07-0.006
								c-0.204-0.039-0.337-0.235-0.299-0.438l1.009-5.325c0.039-0.205,0.236-0.339,0.438-0.298
								c0.204,0.039,0.337,0.235,0.298,0.438l-1.008,5.324C127.024,192.444,126.866,192.569,126.69,192.569z M126.491,182.103
								c-0.153,0-0.296-0.094-0.352-0.246l-1.866-5.087c-0.071-0.195,0.028-0.41,0.223-0.481c0.193-0.072,0.41,0.028,0.481,0.223
								l1.866,5.087c0.071,0.194-0.028,0.41-0.223,0.481C126.578,182.096,126.534,182.103,126.491,182.103z"/>
						</g>
						<g>
							<path style="fill:#E1DEE2;" d="M121.212,221.654c-0.023,0-0.047-0.002-0.071-0.007c-0.204-0.039-0.337-0.235-0.298-0.439
								l0.468-2.458c0.038-0.204,0.234-0.341,0.438-0.298c0.203,0.039,0.337,0.235,0.298,0.439l-0.468,2.458
								C121.546,221.529,121.388,221.654,121.212,221.654z"/>
						</g>
					</g>
					<g>
						<path style="fill:#E1DEE2;" d="M149.183,215.145c-0.175,0-0.331-0.122-0.367-0.3c-0.041-0.203,0.09-0.401,0.293-0.442
							c8.434-1.712,16.456-5.444,23.198-10.794c0.162-0.129,0.398-0.101,0.527,0.061c0.128,0.162,0.102,0.398-0.061,0.527
							c-6.835,5.422-14.966,9.206-23.515,10.941C149.233,215.143,149.208,215.145,149.183,215.145z"/>
					</g>
					<g>
						<path style="fill:#E1DEE2;" d="M136.583,209.283c-0.141,0-0.275-0.079-0.339-0.214c-0.089-0.187-0.009-0.411,0.178-0.5
							c11.957-5.666,22.208-15.082,28.865-26.517c0.105-0.178,0.334-0.238,0.513-0.136c0.179,0.104,0.24,0.334,0.136,0.513
							c-6.733,11.564-17.101,21.088-29.192,26.818C136.691,209.271,136.636,209.283,136.583,209.283z"/>
					</g>
					<g>
						<path style="fill:#E1DEE2;" d="M162.976,141.735c-0.032,0-0.064-0.004-0.096-0.013c-12.185-3.221-22.958-11.097-29.558-21.609
							c-0.11-0.175-0.058-0.407,0.118-0.517c0.176-0.111,0.407-0.057,0.517,0.118c6.446,10.268,16.937,17.983,28.819,21.204
							c3.478-7.037,5.154-14.891,4.852-22.735c-0.008-0.207,0.153-0.381,0.36-0.389c0.197-0.013,0.381,0.153,0.389,0.36
							c0.312,8.072-1.44,16.155-5.066,23.374C163.247,141.657,163.115,141.735,162.976,141.735z"/>
					</g>
				</g>
			</g>
		</g>
		<g>
			<g>
				<path style="fill:#E9A52D;" d="M78.303,310.417H52.165c-8.165,0-14.784,6.619-14.784,14.783v122.77h40.922V310.417z"/>
			</g>
			<g>
				<path style="fill:#444145;" d="M84.139,241.291c0,2.428-1.968,4.397-4.397,4.397c-2.428,0-4.397-1.968-4.397-4.397
					c0-2.428,1.968-4.396,4.397-4.396C82.17,236.895,84.139,238.863,84.139,241.291z"/>
			</g>
			<g>
				<rect x="78.303" y="238.357" style="fill:#444145;" width="2.878" height="212.491"/>
			</g>
			<g>
				
					<rect x="58.533" y="428.2" transform="matrix(6.123234e-17 -1 1 6.123234e-17 -389.4368 509.3814)" style="fill:#444145;" width="2.878" height="42.417"/>
			</g>
			<g>
				<circle style="fill:#766D78;" cx="79.742" cy="452.336" r="7.487"/>
			</g>
			<g>
				<circle style="fill:#766D78;" cx="38.764" cy="452.336" r="7.487"/>
			</g>
			<g>
				<path style="fill:#E9A52D;" d="M37.381,332.976L37.381,332.976v107.121l0,0c-7.008,0-12.69-5.682-12.69-12.69v-81.741
					C24.691,338.658,30.373,332.976,37.381,332.976z"/>
			</g>
			<g>
				<rect x="36.881" y="332.976" style="fill:#CF8A13;" width="1" height="107.122"/>
			</g>
			<g>
				<path style="fill:#CF8A13;" d="M78.303,440.598H56.251c-5.789,0-10.5-4.71-10.5-10.5v-97.005c0-5.79,4.711-10.5,10.5-10.5
					h22.053v1H56.251c-5.238,0-9.5,4.262-9.5,9.5v97.005c0,5.238,4.262,9.5,9.5,9.5h22.053V440.598z"/>
			</g>
			<g>
				<rect x="68.143" y="323.093" style="fill:#CF8A13;" width="1" height="117.005"/>
			</g>
		</g>
	</g>
	<g>
		<g>
			<path style="fill:#444145;" d="M730.182,460.823H19.818c-0.276,0-0.5-0.224-0.5-0.5c0-0.276,0.224-0.5,0.5-0.5h710.364
				c0.276,0,0.5,0.224,0.5,0.5C730.682,460.599,730.458,460.823,730.182,460.823z"/>
		</g>
	</g>
</g>
</svg>
