<svg width="766" height="1024" viewBox="0 0 766 1024" fill="none" xmlns="http://www.w3.org/2000/svg">
<rect width="766" height="1024" fill="#FF840F"/>
<ellipse cx="686.293" cy="141" rx="401.593" ry="396.394" transform="rotate(26.8367 686.293 141)" fill="url(#paint0_linear_95_9864)" fill-opacity="0.4"/>
<path d="M371 955.94L369.668 955L364 959L369.668 963L371 962.06L366.673 959L371 955.94Z" fill="#EDF2F7" fill-opacity="0.3"/>
<path d="M464.332 955L463 955.94L467.327 959L463 962.06L464.332 963L470 959L464.332 955Z" fill="#CBD5E0"/>
<circle cx="418" cy="960" r="4" fill="#D9D9D9"/>
<circle cx="393.01" cy="959.682" r="1.85789" fill="#EDF2F7" fill-opacity="0.3"/>
<circle cx="443.6" cy="959.682" r="1.85789" fill="#EDF2F7" fill-opacity="0.3"/>
<mask id="path-8-inside-1_95_9864" fill="white">
<path d="M409.611 952.705C407.958 954.765 407.09 957.346 407.162 959.987C407.234 962.628 408.242 965.157 410.005 967.124C411.769 969.091 414.174 970.368 416.791 970.727C419.409 971.085 422.069 970.503 424.297 969.083L422.725 966.617C421.082 967.665 419.119 968.095 417.188 967.83C415.257 967.566 413.483 966.624 412.182 965.173C410.881 963.722 410.137 961.855 410.084 959.907C410.031 957.959 410.671 956.055 411.891 954.535L409.611 952.705Z"/>
</mask>
<path d="M409.611 952.705C407.958 954.765 407.09 957.346 407.162 959.987C407.234 962.628 408.242 965.157 410.005 967.124C411.769 969.091 414.174 970.368 416.791 970.727C419.409 971.085 422.069 970.503 424.297 969.083L422.725 966.617C421.082 967.665 419.119 968.095 417.188 967.83C415.257 967.566 413.483 966.624 412.182 965.173C410.881 963.722 410.137 961.855 410.084 959.907C410.031 957.959 410.671 956.055 411.891 954.535L409.611 952.705Z" stroke="#D9D9D9" stroke-width="4" mask="url(#path-8-inside-1_95_9864)"/>
<defs>
<linearGradient id="paint0_linear_95_9864" x1="686.293" y1="-255.394" x2="467.431" y2="725.789" gradientUnits="userSpaceOnUse">
<stop stop-color="#F7FAFC"/>
<stop offset="1" stop-color="#EDF2F7" stop-opacity="0"/>
</linearGradient>
</defs>
</svg>
